<svg height="1155" width="1455" xmlns="http://www.w3.org/2000/svg" xmlns:xlink="http://www.w3.org/1999/xlink"><linearGradient id="a" gradientUnits="userSpaceOnUse" x1="57" x2="229" y1="805" y2="805"><stop offset="0" stop-color="#58dada"/><stop offset="1" stop-color="#7fffd6"/></linearGradient><linearGradient id="b" x1="1166" x2="1356" xlink:href="#a" y1="936" y2="936"/><linearGradient id="c" x1="1020" x2="1210" xlink:href="#a" y1="411" y2="411"/><linearGradient id="d" x1="441" x2="627" xlink:href="#a" y1="869" y2="869"/><linearGradient id="e" x1="496" x2="536" xlink:href="#a" y1="859" y2="859"/><linearGradient id="f" x1="605" x2="645" xlink:href="#a" y1="796" y2="796"/><linearGradient id="g" x1="1005" x2="1052" xlink:href="#a" y1="987" y2="987"/><linearGradient id="h" x1="1059" x2="1106" xlink:href="#a" y1="955" y2="955"/><linearGradient id="i" x1="1114" x2="1161" xlink:href="#a" y1="924" y2="924"/><linearGradient id="j" x1="859" x2="1211" xlink:href="#a" y1="891" y2="891"/><linearGradient id="k" x1="734" x2="734" xlink:href="#a" y1="684" y2="614"/><linearGradient id="l" x1="1043" x2="1043" xlink:href="#a" y1="674" y2="604"/><linearGradient id="m" x1="907" x2="907" xlink:href="#a" y1="664" y2="467"/><linearGradient id="n" x1="439" x2="1083" xlink:href="#a" y1="917" y2="917"/><linearGradient id="o" x1="130" x2="738" xlink:href="#a" y1="728" y2="728"/><linearGradient id="p" x1="950" x2="1097" xlink:href="#a" y1="755" y2="755"/><linearGradient id="q" x1="587" x2="702" xlink:href="#a" y1="796" y2="796"/><linearGradient id="r" x1="1039" x2="1083" xlink:href="#a" y1="1006" y2="1006"/><linearGradient id="s" x1="1093" x2="1138" xlink:href="#a" y1="975" y2="975"/><linearGradient id="t" x1="1148" x2="1192" xlink:href="#a" y1="943" y2="943"/><linearGradient id="u" gradientUnits="userSpaceOnUse" x1="452" x2="452" y1="586" y2="450"><stop offset="0" stop-color="#1ca2bb"/><stop offset="1" stop-color="#005e7c"/></linearGradient><linearGradient id="v" x1="353" x2="353" xlink:href="#u" y1="660" y2="513"/><linearGradient id="w" x1="407" x2="407" xlink:href="#u" y1="660" y2="534"/><linearGradient id="x" x1="471" x2="471" xlink:href="#u" y1="691" y2="534"/><linearGradient id="y" x1="552" x2="552" xlink:href="#u" y1="691" y2="544"/><linearGradient id="z" gradientUnits="userSpaceOnUse" x1="353" x2="552" y1="518" y2="518"><stop offset="0" stop-color="#bcf0f0"/><stop offset="1" stop-color="#7fffd6"/></linearGradient><linearGradient id="A" gradientUnits="userSpaceOnUse" x1="452" x2="452" y1="565" y2="345"><stop offset="0" stop-color="#bcf0f0"/><stop offset="0" stop-color="#b1f3eb"/><stop offset="0" stop-color="#a7f5e7"/><stop offset="0" stop-color="#9df8e3"/><stop offset="0" stop-color="#95fadf" stop-opacity="0"/><stop offset="0" stop-color="#8efbdc" stop-opacity="0"/><stop offset="0" stop-color="#89fdda" stop-opacity="0"/><stop offset="0" stop-color="#84fed8" stop-opacity="0"/><stop offset="0" stop-color="#81fed7" stop-opacity="0"/><stop offset="1" stop-color="#7fffd6" stop-opacity="0"/></linearGradient><linearGradient id="B" x1="462" x2="462" xlink:href="#u" y1="837" y2="715"/><linearGradient id="C" x1="462" x2="462" xlink:href="#u" y1="947" y2="804"/><linearGradient id="D" x1="324" x2="494" xlink:href="#u" y1="773" y2="671"/><linearGradient id="E" x1="299" x2="425" xlink:href="#u" y1="812" y2="728"/><linearGradient id="F" x1="298" x2="424" xlink:href="#z" y1="812" y2="728"/><linearGradient id="G" x1="325" x2="325" xlink:href="#u" y1="848" y2="748"/><linearGradient id="H" x1="462" x2="462" xlink:href="#u" y1="723" y2="618"/><linearGradient id="I" x1="300" x2="300" xlink:href="#z" y1="783" y2="819"/><linearGradient id="J" x1="300" x2="300" xlink:href="#z" y1="804" y2="840"/><linearGradient id="K" x1="300" x2="300" xlink:href="#z" y1="825" y2="861"/><linearGradient id="L" x1="318" x2="318" xlink:href="#z" y1="793" y2="829"/><linearGradient id="M" x1="318" x2="318" xlink:href="#z" y1="814" y2="850"/><linearGradient id="N" x1="318" x2="318" xlink:href="#z" y1="835" y2="871"/><linearGradient id="O" x1="336" x2="336" xlink:href="#z" y1="804" y2="840"/><linearGradient id="P" x1="336" x2="336" xlink:href="#z" y1="825" y2="861"/><linearGradient id="Q" x1="336" x2="336" xlink:href="#z" y1="846" y2="882"/><linearGradient id="R" x1="354" x2="354" xlink:href="#z" y1="814" y2="850"/><linearGradient id="S" x1="354" x2="354" xlink:href="#z" y1="835" y2="871"/><linearGradient id="T" x1="354" x2="354" xlink:href="#z" y1="856" y2="892"/><linearGradient id="U" gradientUnits="userSpaceOnUse" x1="391" x2="391" y1="809" y2="849"><stop offset="0" stop-color="#1ca2bb"/><stop offset="1" stop-color="#7fffd6"/></linearGradient><linearGradient id="V" x1="391" x2="391" xlink:href="#U" y1="830" y2="870"/><linearGradient id="W" x1="391" x2="391" xlink:href="#U" y1="851" y2="891"/><linearGradient id="X" x1="410" x2="410" xlink:href="#U" y1="798" y2="839"/><linearGradient id="Y" x1="410" x2="410" xlink:href="#U" y1="819" y2="860"/><linearGradient id="Z" x1="410" x2="410" xlink:href="#U" y1="840" y2="881"/><linearGradient id="aa" x1="428" x2="428" xlink:href="#U" y1="788" y2="828"/><linearGradient id="ab" x1="428" x2="428" xlink:href="#U" y1="809" y2="849"/><linearGradient id="ac" x1="428" x2="428" xlink:href="#U" y1="830" y2="870"/><linearGradient id="ad" x1="446" x2="446" xlink:href="#U" y1="778" y2="818"/><linearGradient id="ae" x1="446" x2="446" xlink:href="#U" y1="799" y2="839"/><linearGradient id="af" x1="446" x2="446" xlink:href="#U" y1="820" y2="860"/><linearGradient id="ag" x1="464" x2="464" xlink:href="#U" y1="767" y2="808"/><linearGradient id="ah" x1="464" x2="464" xlink:href="#U" y1="788" y2="829"/><linearGradient id="ai" x1="464" x2="464" xlink:href="#U" y1="809" y2="850"/><linearGradient id="aj" x1="482" x2="482" xlink:href="#U" y1="757" y2="797"/><linearGradient id="ak" x1="482" x2="482" xlink:href="#U" y1="778" y2="818"/><linearGradient id="al" x1="482" x2="482" xlink:href="#U" y1="799" y2="839"/><linearGradient id="am" x1="500" x2="500" xlink:href="#U" y1="746" y2="787"/><linearGradient id="an" x1="500" x2="500" xlink:href="#U" y1="767" y2="808"/><linearGradient id="ao" x1="500" x2="500" xlink:href="#U" y1="788" y2="829"/><linearGradient id="ap" x1="519" x2="519" xlink:href="#U" y1="736" y2="776"/><linearGradient id="aq" x1="519" x2="519" xlink:href="#U" y1="757" y2="797"/><linearGradient id="ar" x1="519" x2="519" xlink:href="#U" y1="778" y2="818"/><linearGradient id="as" x1="537" x2="537" xlink:href="#U" y1="725" y2="766"/><linearGradient id="at" x1="482" x2="482" xlink:href="#U" y1="735" y2="776"/><linearGradient id="au" x1="500" x2="500" xlink:href="#U" y1="725" y2="765"/><linearGradient id="av" x1="519" x2="519" xlink:href="#U" y1="714" y2="755"/><linearGradient id="aw" x1="537" x2="537" xlink:href="#U" y1="704" y2="744"/><linearGradient id="ax" x1="482" x2="482" xlink:href="#U" y1="714" y2="754"/><linearGradient id="ay" x1="500" x2="500" xlink:href="#U" y1="703" y2="744"/><linearGradient id="az" x1="519" x2="519" xlink:href="#U" y1="693" y2="733"/><linearGradient id="aA" x1="537" x2="537" xlink:href="#U" y1="682" y2="723"/><linearGradient id="aB" x1="537" x2="537" xlink:href="#U" y1="746" y2="787"/><linearGradient id="aC" x1="537" x2="537" xlink:href="#U" y1="767" y2="808"/><linearGradient id="aD" x1="661" x2="661" xlink:href="#u" y1="709" y2="462"/><linearGradient id="aE" x1="625" x2="625" xlink:href="#u" y1="743" y2="546"/><linearGradient id="aF" x1="643" x2="643" xlink:href="#u" y1="649" y2="471"/><linearGradient id="aG" x1="625" x2="625" xlink:href="#u" y1="649" y2="471"/><linearGradient id="aH" x1="634" x2="634" xlink:href="#u" y1="495" y2="443"/><linearGradient id="aI" x1="625" x2="625" xlink:href="#u" y1="495" y2="443"/><linearGradient id="aJ" x1="589" x2="589" xlink:href="#u" y1="743" y2="546"/><linearGradient id="aK" x1="607" x2="607" xlink:href="#u" y1="649" y2="471"/><linearGradient id="aL" x1="616" x2="616" xlink:href="#u" y1="495" y2="443"/><linearGradient id="aM" x1="643" x2="643" xlink:href="#u" y1="649" y2="502"/><linearGradient id="aN" x1="589" x2="589" xlink:href="#u" y1="754" y2="628"/><linearGradient id="aO" x1="583" x2="673" xlink:href="#z" y1="471" y2="471"/><linearGradient id="aP" x1="625" x2="625" xlink:href="#A" y1="597" y2="159"/><linearGradient id="aQ" gradientUnits="userSpaceOnUse" x1="589" x2="661" y1="536" y2="536"><stop offset="0" stop-color="#bcf0f0" stop-opacity="0"/><stop offset="1" stop-color="#7fffd6" stop-opacity="0"/></linearGradient><linearGradient id="aR" x1="589" x2="661" xlink:href="#aQ" y1="557" y2="557"/><linearGradient id="aS" x1="589" x2="661" xlink:href="#aQ" y1="578" y2="578"/><linearGradient id="aT" x1="589" x2="661" xlink:href="#aQ" y1="599" y2="599"/><linearGradient id="aU" x1="589" x2="661" xlink:href="#aQ" y1="620" y2="620"/><linearGradient id="aV" gradientUnits="userSpaceOnUse" x1="552" x2="698" y1="692" y2="692"><stop offset="0" stop-color="#58dada"/><stop offset="0" stop-color="#7fffd6"/><stop offset="1" stop-color="#7fffd6"/></linearGradient><linearGradient id="aW" x1="607" x2="643" xlink:href="#a" y1="496" y2="496"/><linearGradient id="aX" x1="370" x2="370" xlink:href="#A" y1="796" y2="597"/><linearGradient id="aY" x1="262" x2="262" xlink:href="#u" y1="754" y2="481"/><linearGradient id="aZ" x1="216" x2="216" xlink:href="#u" y1="754" y2="534"/><linearGradient id="a0" x1="262" x2="262" xlink:href="#u" y1="565" y2="460"/><linearGradient id="a1" x1="262" x2="262" xlink:href="#u" y1="544" y2="460"/><linearGradient id="a2" x1="226" x2="298" xlink:href="#z" y1="502" y2="502"/><linearGradient id="a3" x1="262" x2="262" xlink:href="#A" y1="523" y2="334"/><linearGradient id="a4" x1="262" x2="262" xlink:href="#a" y1="565" y2="502"/><linearGradient id="a5" gradientUnits="userSpaceOnUse" x1="262" x2="262" y1="618" y2="555"><stop offset="0" stop-color="#58dada" stop-opacity="0"/><stop offset="1" stop-color="#7fffd6"/></linearGradient><linearGradient id="a6" x1="262" x2="262" xlink:href="#a5" y1="670" y2="607"/><linearGradient id="a7" x1="262" x2="262" xlink:href="#a5" y1="722" y2="659"/><linearGradient id="a8" x1="179" x2="179" xlink:href="#a" y1="602" y2="579"/><linearGradient id="a9" x1="191" x2="191" xlink:href="#a" y1="609" y2="586"/><linearGradient id="ba" x1="204" x2="204" xlink:href="#a" y1="616" y2="593"/><linearGradient id="bb" x1="216" x2="216" xlink:href="#a" y1="624" y2="600"/><linearGradient id="bc" x1="229" x2="229" xlink:href="#a" y1="631" y2="608"/><linearGradient id="bd" x1="241" x2="241" xlink:href="#a" y1="638" y2="615"/><linearGradient id="be" x1="254" x2="254" xlink:href="#a" y1="645" y2="622"/><linearGradient id="bf" x1="179" x2="179" xlink:href="#a" y1="655" y2="632"/><linearGradient id="bg" x1="191" x2="191" xlink:href="#a" y1="662" y2="639"/><linearGradient id="bh" x1="204" x2="204" xlink:href="#a" y1="669" y2="646"/><linearGradient id="bi" x1="216" x2="216" xlink:href="#a" y1="677" y2="653"/><linearGradient id="bj" x1="229" x2="229" xlink:href="#a" y1="684" y2="661"/><linearGradient id="bk" x1="241" x2="241" xlink:href="#a" y1="691" y2="668"/><linearGradient id="bl" x1="254" x2="254" xlink:href="#a" y1="698" y2="675"/><linearGradient id="bm" gradientTransform="matrix(-1 0 0 1 521 0)" x1="176" x2="176" xlink:href="#a" y1="602" y2="579"/><linearGradient id="bn" gradientTransform="matrix(-1 0 0 1 521 0)" x1="189" x2="189" xlink:href="#a" y1="609" y2="586"/><linearGradient id="bo" gradientTransform="matrix(-1 0 0 1 521 0)" x1="201" x2="201" xlink:href="#a" y1="617" y2="593"/><linearGradient id="bp" gradientTransform="matrix(-1 0 0 1 521 0)" x1="214" x2="214" xlink:href="#a" y1="624" y2="601"/><linearGradient id="bq" gradientTransform="matrix(-1 0 0 1 521 0)" x1="226" x2="226" xlink:href="#a" y1="631" y2="608"/><linearGradient id="br" gradientTransform="matrix(-1 0 0 1 521 0)" x1="239" x2="239" xlink:href="#a" y1="638" y2="615"/><linearGradient id="bs" gradientTransform="matrix(-1 0 0 1 521 0)" x1="251" x2="251" xlink:href="#a" y1="646" y2="622"/><linearGradient id="bt" gradientTransform="matrix(-1 0 0 1 521 0)" x1="176" x2="176" xlink:href="#a" y1="655" y2="632"/><linearGradient id="bu" gradientTransform="matrix(-1 0 0 1 521 0)" x1="189" x2="189" xlink:href="#a" y1="662" y2="639"/><linearGradient id="bv" gradientTransform="matrix(-1 0 0 1 521 0)" x1="201" x2="201" xlink:href="#a" y1="670" y2="646"/><linearGradient id="bw" gradientTransform="matrix(-1 0 0 1 521 0)" x1="214" x2="214" xlink:href="#a" y1="677" y2="654"/><linearGradient id="bx" gradientTransform="matrix(-1 0 0 1 521 0)" x1="226" x2="226" xlink:href="#a" y1="684" y2="661"/><linearGradient id="by" gradientTransform="matrix(-1 0 0 1 521 0)" x1="239" x2="239" xlink:href="#a" y1="691" y2="668"/><linearGradient id="bz" gradientTransform="matrix(-1 0 0 1 521 0)" x1="251" x2="251" xlink:href="#a" y1="699" y2="675"/><linearGradient id="bA" x1="1079" x2="1208" xlink:href="#a" y1="693" y2="693"/><linearGradient id="bB" gradientUnits="userSpaceOnUse" x1="1185" x2="1101" y1="688" y2="688"><stop offset="0" stop-color="#99bfcb"/><stop offset="1" stop-color="#ccdfe5"/></linearGradient><linearGradient id="bC" gradientUnits="userSpaceOnUse" x1="1101" x2="1185" y1="680" y2="680"><stop offset="0" stop-color="#1ca2bb"/><stop offset="1" stop-color="#58dada"/></linearGradient><linearGradient id="bD" x1="1101" x2="1185" xlink:href="#bC" y1="652" y2="652"/><linearGradient id="bE" x1="1101" x2="1185" xlink:href="#bC" y1="628" y2="628"/><linearGradient id="bF" x1="1101" x2="1185" xlink:href="#bC" y1="559" y2="559"/><linearGradient id="bG" x1="1185" x2="1101" xlink:href="#bB" y1="477" y2="477"/><linearGradient id="bH" x1="1101" x2="1185" xlink:href="#bC" y1="491" y2="491"/><linearGradient id="bI" x1="1101" x2="1185" xlink:href="#bC" y1="482" y2="482"/><linearGradient id="bJ" x1="1185" x2="1101" xlink:href="#bB" y1="475" y2="475"/><linearGradient id="bK" gradientUnits="userSpaceOnUse" x1="1101" x2="1185" y1="465" y2="465"><stop offset="0" stop-color="#fff"/><stop offset="1" stop-color="#ccdfe5"/></linearGradient><linearGradient id="bL" x1="825" x2="825" xlink:href="#u" y1="292" y2="104"/><linearGradient id="bM" x1="870" x2="870" xlink:href="#u" y1="125" y2="83"/><linearGradient id="bN" x1="880" x2="880" xlink:href="#u" y1="292" y2="125"/><linearGradient id="bO" x1="925" x2="925" xlink:href="#u" y1="231" y2="53"/><linearGradient id="bP" x1="880" x2="880" xlink:href="#u" y1="387" y2="249"/><linearGradient id="bQ" x1="816" x2="816" xlink:href="#u" y1="387" y2="271"/><linearGradient id="bR" x1="880" x2="880" xlink:href="#u" y1="639" y2="416"/><linearGradient id="bS" x1="816" x2="816" xlink:href="#u" y1="639" y2="334"/><linearGradient id="bT" x1="880" x2="880" xlink:href="#u" y1="377" y2="307"/><linearGradient id="bU" gradientUnits="userSpaceOnUse" x1="879" x2="879" y1="377" y2="314"><stop offset="0" stop-color="#7fffd6"/><stop offset="1" stop-color="#1ca2bb"/></linearGradient><linearGradient id="bV" x1="1025" x2="1025" xlink:href="#u" y1="576" y2="240"/><linearGradient id="bW" x1="989" x2="989" xlink:href="#u" y1="710" y2="363"/><linearGradient id="bX" gradientUnits="userSpaceOnUse" x1="830" x2="907" y1="104" y2="104"><stop offset="0" stop-color="#7fffd6"/><stop offset="1" stop-color="#bcf0f0"/></linearGradient><linearGradient id="bY" x1="869" x2="869" xlink:href="#A" y1="116" y2="-21"/><clipPath id="bZ"><path d="m989 565v-10l-19-10v-305l37 21v315z"/></clipPath><linearGradient id="b0" x1="833" x2="988" xlink:href="#a" y1="614" y2="346"/><linearGradient id="b1" x1="943" x2="943" xlink:href="#u" y1="325" y2="130"/><linearGradient id="b2" x1="934" x2="934" xlink:href="#u" y1="639" y2="282"/><linearGradient id="b3" x1="877" x2="883" xlink:href="#a" y1="413" y2="403"/><linearGradient id="b4" x1="877" x2="883" xlink:href="#a" y1="434" y2="424"/><linearGradient id="b5" x1="877" x2="883" xlink:href="#a" y1="455" y2="445"/><linearGradient id="b6" x1="877" x2="883" xlink:href="#a" y1="476" y2="466"/><linearGradient id="b7" x1="877" x2="883" xlink:href="#a" y1="497" y2="487"/><linearGradient id="b8" x1="877" x2="883" xlink:href="#a" y1="518" y2="508"/><linearGradient id="b9" x1="877" x2="883" xlink:href="#a" y1="539" y2="529"/><linearGradient id="ca" x1="877" x2="883" xlink:href="#a" y1="560" y2="550"/><linearGradient id="cb" x1="877" x2="883" xlink:href="#a" y1="581" y2="571"/><linearGradient id="cc" x1="877" x2="883" xlink:href="#a" y1="602" y2="592"/><linearGradient id="cd" x1="877" x2="883" xlink:href="#a" y1="623" y2="613"/><clipPath id="ce"><path d="m861 387v252l-90-53v-252z"/></clipPath><linearGradient id="cf" gradientUnits="userSpaceOnUse" x1="729" x2="849" y1="690" y2="484"><stop offset="0" stop-color="#7fffd6"/><stop offset="1" stop-color="#58dada" stop-opacity="0"/></linearGradient><linearGradient id="cg" x1="730" x2="884" xlink:href="#cf" y1="690" y2="423"/><linearGradient id="ch" x1="784" x2="867" xlink:href="#cf" y1="721" y2="576"/><linearGradient id="ci" x1="775" x2="912" xlink:href="#cf" y1="716" y2="478"/><clipPath id="cj"><path d="m898 387v252l72-42v-315l-54 10z"/></clipPath><linearGradient id="ck" x1="860" x2="972" xlink:href="#cf" y1="703" y2="510"/><linearGradient id="cl" x1="845" x2="1023" xlink:href="#cf" y1="673" y2="364"/><linearGradient id="cm" x1="881" x2="1024" xlink:href="#cf" y1="672" y2="424"/><linearGradient id="cn" x1="974" x2="1076" xlink:href="#cf" y1="538" y2="362"/><linearGradient id="co" x1="852" x2="908" xlink:href="#cf" y1="278" y2="181"/><linearGradient id="cp" x1="877" x2="919" xlink:href="#cf" y1="282" y2="208"/><linearGradient id="cq" x1="836" x2="887" xlink:href="#cf" y1="279" y2="190"/><linearGradient id="cr" x1="792" x2="858" xlink:href="#cf" y1="265" y2="152"/><linearGradient id="cs" x1="909" x2="959" xlink:href="#cf" y1="277" y2="190"/><linearGradient id="ct" x1="935" x2="970" xlink:href="#cf" y1="277" y2="217"/><clipPath id="cu"><path d="m27 663h68v65h-68z"/></clipPath><linearGradient id="cv" gradientUnits="userSpaceOnUse" x1="739" x2="913" y1="827" y2="827"><stop offset="0" stop-color="#a4c339"/><stop offset="1" stop-color="#6dd4ae"/><stop offset="1" stop-color="#58dada"/></linearGradient><linearGradient id="cw" x1="769" x2="810" xlink:href="#cv" y1="848" y2="848"/><linearGradient id="cx" x1="787" x2="828" xlink:href="#cv" y1="837" y2="837"/><linearGradient id="cy" x1="805" x2="846" xlink:href="#cv" y1="826" y2="826"/><linearGradient id="cz" x1="823" x2="864" xlink:href="#cv" y1="816" y2="816"/><linearGradient id="cA" x1="841" x2="882" xlink:href="#cv" y1="805" y2="805"/><linearGradient id="cB" x1="896" x2="938" xlink:href="#cv" y1="837" y2="837"/><linearGradient id="cC" x1="914" x2="956" xlink:href="#cv" y1="848" y2="848"/><linearGradient id="cD" x1="933" x2="974" xlink:href="#cv" y1="858" y2="858"/><linearGradient id="cE" x1="951" x2="992" xlink:href="#cv" y1="869" y2="869"/><linearGradient id="cF" x1="969" x2="1010" xlink:href="#cv" y1="879" y2="879"/><linearGradient id="cG" x1="842" x2="883" xlink:href="#cv" y1="869" y2="869"/><linearGradient id="cH" x1="860" x2="901" xlink:href="#cv" y1="879" y2="879"/><linearGradient id="cI" x1="878" x2="919" xlink:href="#cv" y1="890" y2="890"/><linearGradient id="cJ" x1="896" x2="938" xlink:href="#cv" y1="900" y2="900"/><linearGradient id="cK" x1="915" x2="956" xlink:href="#cv" y1="911" y2="911"/><linearGradient id="cL" x1="824" x2="901" xlink:href="#cv" y1="911" y2="911"/><linearGradient id="cM" x1="624" x2="883" xlink:href="#cv" y1="921" y2="921"/><linearGradient id="cN" x1="787" x2="847" xlink:href="#cv" y1="958" y2="958"/><linearGradient id="cO" x1="769" x2="829" xlink:href="#cv" y1="947" y2="947"/><linearGradient id="cP" x1="751" x2="810" xlink:href="#cv" y1="937" y2="937"/><linearGradient id="cQ" x1="733" x2="792" xlink:href="#cv" y1="926" y2="926"/><linearGradient id="cR" x1="715" x2="774" xlink:href="#cv" y1="916" y2="916"/><linearGradient id="cS" x1="696" x2="756" xlink:href="#cv" y1="905" y2="905"/><linearGradient id="cT" x1="678" x2="738" xlink:href="#cv" y1="895" y2="895"/><linearGradient id="cU" x1="660" x2="720" xlink:href="#cv" y1="884" y2="884"/><linearGradient id="cV" x1="606" x2="774" xlink:href="#cv" y1="958" y2="958"/><linearGradient id="cW" x1="642" x2="756" xlink:href="#cv" y1="984" y2="984"/><linearGradient id="cX" x1="624" x2="738" xlink:href="#cv" y1="994" y2="994"/><linearGradient id="cY" x1="606" x2="720" xlink:href="#cv" y1="1005" y2="1005"/><linearGradient id="cZ" x1="569" x2="701" xlink:href="#cv" y1="1021" y2="1021"/><linearGradient id="c0" x1="551" x2="629" xlink:href="#cv" y1="963" y2="963"/><linearGradient id="c1" x1="533" x2="611" xlink:href="#cv" y1="952" y2="952"/><linearGradient id="c2" x1="515" x2="592" xlink:href="#cv" y1="942" y2="942"/><linearGradient id="c3" gradientUnits="userSpaceOnUse" x1="481" x2="681" y1="979" y2="979"><stop offset="0" stop-color="#bcf0f0"/><stop offset="1" stop-color="#58dada" stop-opacity="0"/></linearGradient><linearGradient id="c4" x1="590" x2="1044" xlink:href="#c3" y1="874" y2="874"/><linearGradient id="c5" x1="844" x2="1044" xlink:href="#c3" y1="769" y2="769"/><linearGradient id="c6" x1="481" x2="953" xlink:href="#c3" y1="816" y2="816"/><linearGradient id="c7" gradientUnits="userSpaceOnUse" x1="57" x2="229" xlink:href="#a" y1="805" y2="805"/><linearGradient id="c8" gradientUnits="userSpaceOnUse" x1="452" x2="452" xlink:href="#u" y1="586" y2="450"/><linearGradient id="c9" gradientUnits="userSpaceOnUse" x1="353" x2="552" xlink:href="#z" y1="518" y2="518"/><linearGradient id="da" gradientUnits="userSpaceOnUse" x1="452" x2="452" xlink:href="#A" y1="565" y2="345"/><linearGradient id="db" gradientUnits="userSpaceOnUse" x1="391" x2="391" xlink:href="#U" y1="809" y2="849"/><linearGradient id="dc" gradientUnits="userSpaceOnUse" x1="589" x2="661" xlink:href="#aQ" y1="536" y2="536"/><linearGradient id="dd" gradientUnits="userSpaceOnUse" x1="262" x2="262" xlink:href="#a5" y1="618" y2="555"/><linearGradient id="de" gradientUnits="userSpaceOnUse" x1="1185" x2="1101" xlink:href="#bB" y1="688" y2="688"/><linearGradient id="df" gradientUnits="userSpaceOnUse" x1="1101" x2="1185" xlink:href="#bC" y1="680" y2="680"/><linearGradient id="dg" gradientUnits="userSpaceOnUse" x1="729" x2="849" xlink:href="#cf" y1="690" y2="484"/><linearGradient id="dh" gradientUnits="userSpaceOnUse" x1="739" x2="913" xlink:href="#cv" y1="827" y2="827"/><linearGradient id="di" gradientUnits="userSpaceOnUse" x1="481" x2="681" xlink:href="#c3" y1="979" y2="979"/><g fill="none" stroke-linejoin="round" stroke-width="8" transform="translate(22 21)"><g stroke-linecap="round"><path d="m225 758-164 94v-84" stroke="url(#c7)"/><path d="m1170 883 182 105v-63" stroke="url(#b)"/><path d="m1024 506 182-105v-84" stroke="url(#c)"/></g><path d="m625 859-36-21-109 63-37-21" stroke="url(#d)"/><path d="m534 869-36-20" stroke="url(#e)"/><path d="m607 786 36 21" stroke="url(#f)"/><path d="m1007 974 43 25" stroke="url(#g)"/><path d="m1061 943 43 25" stroke="url(#h)"/><path d="m1116 911 43 25" stroke="url(#i)"/><path d="m1025 754 182 105-291 168-55-32" stroke="url(#j)"/><path d="m789 618-109 63" stroke="url(#k)"/><path d="m1098 670-109-63" stroke="url(#l)"/><path d="m934 471 145 84-181 105h-37l-127-74z" stroke="url(#m)"/><path d="m1079 869-236-136-400 231 237 136z" stroke="url(#n)"/><path d="m425 535-291 168 181 103-71 43 127 73 363-210z" stroke="url(#o)"/><path d="m1095 713-70 41-73 42" stroke="url(#p)"/><path d="m589 838 109-63-37-21" stroke="url(#q)"/><ellipse cx="1061" cy="1006" rx="18" ry="10" stroke="url(#r)"/><ellipse cx="1116" cy="975" rx="18" ry="10" stroke="url(#s)"/><ellipse cx="1170" cy="943" rx="18" ry="10" stroke="url(#t)"/></g><g transform="translate(22 21)"><path d="m589 544-73 42-91-52-36 21-73-42 109-63z" fill="url(#c8)"/><path d="m389 660v-105l-73-42v105z" fill="url(#v)"/><path d="m425 534-36 21v105l36-21z" fill="url(#w)"/><path d="m516 586-91-52v105l91 52z" fill="url(#x)"/><path d="m589 544-73 42v105l73-42z" fill="url(#y)"/><path d="m425 513 91 52 36-21-127-73-72 42 36 21z" fill="url(#c9)"/><path d="m425 513 91 52 36-21v-199h-199v168l36 21z" fill="url(#da)"/><path d="m371 901v-84l91-52v-42l90-53v126z" fill="url(#B)"/><path d="m371 670 91-52 90 52-90 53z" fill="url(#C)"/><path d="m371 712v-42l91 53v42z" fill="url(#D)"/><path d="m462 765-91 52-91-52 91-53zm-92 31 54-31-54-32-55 31z" fill="url(#E)"/><path d="m315 765 55-32 54 32-54 31z" fill="url(#F)"/><path d="m280 848v-83l91 52v84z" fill="url(#G)"/><path d="m462 618 90 52-90 53-91-53z" fill="url(#H)"/><path d="m303 809v-9l-6-4v10z" fill="url(#I)"/><path d="m303 830v-10l-6-3v9z" fill="url(#J)"/><path d="m303 851v-10l-6-3v9z" fill="url(#K)"/><path d="m321 820v-10l-6-4v10z" fill="url(#L)"/><path d="m321 840v-9l-6-4v10z" fill="url(#M)"/><path d="m321 861v-9l-6-4v10z" fill="url(#N)"/><path d="m339 830v-10l-6-3v9z" fill="url(#O)"/><path d="m339 851v-10l-6-3v9z" fill="url(#P)"/><path d="m339 872v-10l-6-4v10z" fill="url(#Q)"/><path d="m357 840v-9l-6-4v10z" fill="url(#R)"/><path d="m357 861v-9l-6-4v10z" fill="url(#S)"/><path d="m357 882v-10l-6-3v9z" fill="url(#T)"/><path d="m395 834v-11l-7 4v11z" fill="url(#db)"/><path d="m395 855v-11l-7 4v11z" fill="url(#V)"/><path d="m395 876v-11l-7 4v11z" fill="url(#W)"/><path d="m413 824v-11l-7 4v11z" fill="url(#X)"/><path d="m413 845v-11l-7 4v11z" fill="url(#Y)"/><path d="m413 866v-11l-7 4v11z" fill="url(#Z)"/><path d="m431 813v-11l-7 5v10z" fill="url(#aa)"/><path d="m431 834v-11l-7 5v10z" fill="url(#ab)"/><path d="m431 855v-11l-7 5v10z" fill="url(#ac)"/><path d="m450 803v-11l-8 4v11z" fill="url(#ad)"/><path d="m450 824v-11l-8 4v11z" fill="url(#ae)"/><path d="m450 845v-11l-8 4v11z" fill="url(#af)"/><path d="m468 792v-10l-7 4v10z" fill="url(#ag)"/><path d="m468 813v-10l-7 4v10z" fill="url(#ah)"/><path d="m468 834v-10l-7 4v10z" fill="url(#ai)"/><path d="m486 782v-11l-7 4v11z" fill="url(#aj)"/><path d="m486 803v-11l-7 4v11z" fill="url(#ak)"/><path d="m486 824v-11l-7 4v11z" fill="url(#al)"/><path d="m504 771v-10l-7 4v11z" fill="url(#am)"/><path d="m504 792v-10l-7 4v11z" fill="url(#an)"/><path d="m504 813v-10l-7 4v11z" fill="url(#ao)"/><path d="m522 761v-11l-7 5v10z" fill="url(#ap)"/><path d="m522 782v-11l-7 5v10z" fill="url(#aq)"/><path d="m522 803v-11l-7 5v10z" fill="url(#ar)"/><path d="m540 751v-11l-7 4v11z" fill="url(#as)"/><path d="m486 760v-10l-7 4v11z" fill="url(#at)"/><path d="m504 750v-11l-7 4v11z" fill="url(#au)"/><path d="m522 740v-11l-7 4v11z" fill="url(#av)"/><path d="m540 729v-11l-7 5v10z" fill="url(#aw)"/><path d="m486 739v-11l-7 4v11z" fill="url(#ax)"/><path d="m504 728v-10l-7 4v11z" fill="url(#ay)"/><path d="m522 718v-11l-7 5v10z" fill="url(#az)"/><path d="m540 708v-11l-7 4v11z" fill="url(#aA)"/><path d="m540 772v-11l-7 4v11z" fill="url(#aB)"/><path d="m540 793v-11l-7 4v11z" fill="url(#aC)"/><path d="m625 754v-84l73-42v84z" fill="url(#aD)"/><path d="m552 628 37-21v21l36 21 36-21v-21l37 21-73 42z" fill="url(#aE)"/><path d="m625 649v-63l36 21v21z" fill="url(#aF)"/><path d="m625 586v-63l36-21v105z" fill="url(#aF)"/><path d="m589 502 18-10 18 10 18-10 18 10-36 21z" fill="url(#aG)"/><path d="m625 481 18-10v21z" fill="url(#aH)"/><path d="m625 502v-21l18 11z" fill="url(#aH)"/><path d="m607 471 18-11 18 11-18 10z" fill="url(#aI)"/><path d="m552 712v-84l73 42v84z" fill="url(#aJ)"/><path d="m589 628v-21l36-21v63z" fill="url(#aK)"/><path d="m589 607v-105l36 21v63z" fill="url(#aK)"/><path d="m607 492 18-11v21z" fill="url(#aL)"/><path d="m607 471 18 10-18 11z" fill="url(#aL)"/><path d="m661 502v126l-36 21v-126z" fill="url(#aM)"/><path d="m625 754-73-42v-84l73 42z" fill="url(#aN)"/><path d="m643 471-18-11-18 11 18 10z" fill="url(#aO)"/><path d="m643 471v-168h-36v168l18 10z" fill="url(#aP)"/><path d="m661 523v5l-36 21-36-21v-5l36 21z" fill="url(#dc)"/><path d="m661 544v5l-36 21-36-21v-5l36 21z" fill="url(#aR)"/><path d="m661 565v5l-36 21-36-21v-5l36 21z" fill="url(#aS)"/><path d="m661 586v5l-36 21-36-21v-5l36 21z" fill="url(#aT)"/><path d="m661 607v5l-36 21-36-21v-5l36 21z" fill="url(#aU)"/><path d="m625 723 73-42v-21l-73 42-73-42v21z" fill="url(#aV)"/><path d="m643 492v-3l-18 11-18-11v3l18 10z" fill="url(#aW)"/><path d="m424 765v-168h-109v168l55 31z" fill="url(#aX)"/><path d="m262 586-91-52 91-53 91 53-91 52 91-52v168l-91 52z" fill="url(#aY)"/><path d="m262 754v-168l-91-52v168z" fill="url(#aZ)"/><path d="m262 565 72-42v-21l-72-42-73 42v21z" fill="url(#a0)"/><path d="m189 502 73-42 72 42-72 42z" fill="url(#a1)"/><path d="m262 565v-21" fill="none"/><path d="m298 502-36-21-36 21 36 21z" fill="url(#a2)"/><path d="m298 502v-168h-72v168l36 21z" fill="url(#a3)"/><path d="m335 523v-21l-73 42-73-42v21l73 42z" fill="url(#a4)"/><path d="m262 618 91-53v-10l-91 52-18-11-73-41v10z" fill="url(#dd)"/><path d="m262 670 91-52v-11l-91 52-18-10-73-42v11z" fill="url(#a6)"/><path d="m262 722 91-52v-11l-91 52-18-10-73-42v11z" fill="url(#a7)"/><path d="m180 602v-21l-3-2v21z" fill="url(#a8)"/><path d="m193 609v-21l-4-2v21z" fill="url(#a9)"/><path d="m205 616v-21l-3-2v21z" fill="url(#ba)"/><path d="m218 624v-21l-4-3v21z" fill="url(#bb)"/><path d="m230 631v-21l-3-2v21z" fill="url(#bc)"/><path d="m243 638v-21l-4-2v21z" fill="url(#bd)"/><path d="m255 645v-21l-3-2v21z" fill="url(#be)"/><path d="m180 655v-21l-3-2v21z" fill="url(#bf)"/><path d="m193 662v-21l-4-2v21z" fill="url(#bg)"/><path d="m205 669v-21l-3-2v21z" fill="url(#bh)"/><path d="m218 677v-21l-4-3v21z" fill="url(#bi)"/><path d="m230 684v-21l-3-2v21z" fill="url(#bj)"/><path d="m243 691v-21l-4-2v21z" fill="url(#bk)"/><path d="m255 698v-21l-3-2v21z" fill="url(#bl)"/><path d="m343 602v-21l4-2v21z" fill="url(#bm)"/><path d="m331 609v-21l3-2v21z" fill="url(#bn)"/><path d="m318 617v-21l4-3v21z" fill="url(#bo)"/><path d="m306 624v-21l3-2v21z" fill="url(#bp)"/><path d="m293 631v-21l4-2v21z" fill="url(#bq)"/><path d="m281 638v-21l3-2v21z" fill="url(#br)"/><path d="m268 646v-21l4-3v21z" fill="url(#bs)"/><path d="m343 655v-21l4-2v21z" fill="url(#bt)"/><path d="m331 662v-21l3-2v21z" fill="url(#bu)"/><path d="m318 670v-21l4-3v21z" fill="url(#bv)"/><path d="m306 677v-21l3-2v21z" fill="url(#bw)"/><path d="m293 684v-21l4-2v21z" fill="url(#bx)"/><path d="m281 691v-21l3-2v21z" fill="url(#by)"/><path d="m268 699v-21l4-3v21z" fill="url(#bz)"/></g><g transform="translate(22 21)"><path d="m1204 693a21 21 0 0 1 -2 7 24 24 0 0 1 -2 5c-8 13-30 23-56 23a93 93 0 0 1 -35-7 56 56 0 0 1 -14-8 33 33 0 0 1 -9-9 23 23 0 0 1 -1-4 21 21 0 0 1 -2-7v-1c2-19 28-34 60-34 15 0 27 3 38 8 14 6 23 16 23 27z" fill="none" stroke="url(#bA)" stroke-linejoin="round" stroke-width="8"/><path d="m1185 688a15 15 0 0 1 -1 5 17 17 0 0 1 -1 4c-6 9-21 16-40 16a65 65 0 0 1 -24-5 40 40 0 0 1 -10-6 23 23 0 0 1 -6-6 16 16 0 0 1 -1-3 15 15 0 0 1 -1-5c1-13 20-24 42-24a64 64 0 0 1 26 5c10 5 16 12 16 19z" fill="url(#de)"/><path d="m1185 680a15 15 0 0 1 -1 5 17 17 0 0 1 -1 3c-6 9-21 16-40 16a65 65 0 0 1 -24-5 40 40 0 0 1 -10-5 23 23 0 0 1 -6-7 17 17 0 0 1 -1-2 15 15 0 0 1 -1-5v-1c1-13 20-24 42-24a64 64 0 0 1 26 6c10 4 16 11 16 19z" fill="url(#df)"/><path d="m1101 680v-56l84 1v55z" fill="url(#bD)"/><path d="m1185 628a15 15 0 0 1 -1 5 17 17 0 0 1 -1 3c-6 10-21 16-40 16a65 65 0 0 1 -24-4 40 40 0 0 1 -10-6 23 23 0 0 1 -6-7 17 17 0 0 1 -1-2 15 15 0 0 1 -1-5v-1c1-13 20-23 42-23a64 64 0 0 1 26 5c10 4 16 11 16 19z" fill="url(#bE)"/><path d="m1101 627v-136l84 1v135z" fill="url(#bF)"/><path d="m1185 489v-24l-84-1v25z" fill="url(#bG)"/><path d="m1185 491a15 15 0 0 1 -1 5 17 17 0 0 1 -1 3c-6 10-21 16-40 16a65 65 0 0 1 -24-4 40 40 0 0 1 -10-6 23 23 0 0 1 -6-7 16 16 0 0 1 -1-2 15 15 0 0 1 -1-5v-1c1-13 20-23 42-23a64 64 0 0 1 26 5c10 4 16 11 16 19z" fill="url(#bH)"/><path d="m1101 491v-17l84 1v16z" fill="url(#bI)"/><path d="m1185 475a15 15 0 0 1 -1 5 17 17 0 0 1 -1 3c-6 9-21 16-40 16a65 65 0 0 1 -24-4 40 40 0 0 1 -10-6 23 23 0 0 1 -6-7 16 16 0 0 1 -1-2 15 15 0 0 1 -1-5v-1c1-13 20-24 42-24a64 64 0 0 1 26 6c10 4 16 11 16 19z" fill="url(#bJ)"/><path d="m1185 465a15 15 0 0 1 -1 5 17 17 0 0 1 -1 3c-6 10-21 16-40 16a65 65 0 0 1 -24-4 40 40 0 0 1 -10-6 23 23 0 0 1 -6-6 17 17 0 0 1 -1-3 15 15 0 0 1 -1-5v-1c1-13 20-23 42-23a64 64 0 0 1 26 5c10 5 16 11 16 19z" fill="url(#bK)"/></g><g fill="#bcf0f0"><circle cx="1133" cy="623" r="1"/><circle cx="1147" cy="605" r="1"/><circle cx="1190" cy="613" r="1"/><circle cx="1152" cy="624" r="1"/><circle cx="1198" cy="609" r="1"/><circle cx="1199" cy="618" r="1"/><circle cx="1133" cy="605" r="1"/><circle cx="1152" cy="612" r="1"/><circle cx="1192" cy="605" r="1"/><circle cx="1186" cy="610" r="1"/><circle cx="1150" cy="637" r="1"/><circle cx="1151" cy="670" r="1"/><circle cx="1187" cy="668" r="1"/><circle cx="1185" cy="688" r="1"/><circle cx="1198" cy="649" r="1"/><circle cx="1187" cy="677" r="1"/><circle cx="1142" cy="651" r="1"/><circle cx="1152" cy="655" r="1"/><circle cx="1192" cy="654" r="1"/><circle cx="1186" cy="673" r="1"/><circle cx="1135" cy="684" r="1"/><circle cx="1147" cy="675" r="1"/><circle cx="1196" cy="677" r="1"/><circle cx="1169" cy="711" r="1"/><circle cx="1195" cy="690" r="1"/><circle cx="1193" cy="684" r="1"/><circle cx="1133" cy="704" r="1"/><circle cx="1157" cy="708" r="1"/><circle cx="1192" cy="704" r="1"/><circle cx="1186" cy="709" r="1"/><circle cx="1133" cy="550" r="1"/><circle cx="1147" cy="532" r="1"/><circle cx="1190" cy="540" r="1"/><circle cx="1152" cy="551" r="1"/><circle cx="1198" cy="536" r="1"/><circle cx="1199" cy="545" r="1"/><circle cx="1133" cy="532" r="1"/><circle cx="1152" cy="539" r="1"/><circle cx="1192" cy="532" r="1"/><circle cx="1186" cy="537" r="1"/><circle cx="1150" cy="564" r="1"/><circle cx="1151" cy="596" r="1"/><circle cx="1187" cy="595" r="1"/><circle cx="1185" cy="614" r="1"/><circle cx="1198" cy="576" r="1"/><circle cx="1187" cy="604" r="1"/><circle cx="1142" cy="578" r="1"/><circle cx="1152" cy="582" r="1"/><circle cx="1192" cy="581" r="1"/><circle cx="1186" cy="600" r="1"/><circle cx="1135" cy="610" r="1"/><circle cx="1147" cy="602" r="1"/><circle cx="1196" cy="603" r="1"/><circle cx="1169" cy="638" r="1"/><circle cx="1195" cy="617" r="1"/><circle cx="1193" cy="611" r="1"/><circle cx="1133" cy="631" r="1"/><circle cx="1157" cy="635" r="1"/><circle cx="1192" cy="631" r="1"/><circle cx="1186" cy="636" r="1"/></g><g transform="translate(22 21)"><path d="m843 292v-167l-36-21v167z" fill="url(#bL)"/><path d="m843 83h37l54 31-54 11h-37l-36-21z" fill="url(#bM)"/><path d="m916 167-36-42h-37v167h73z" fill="url(#bN)"/><path d="m970 156-36-42-54 11 36 42z" fill="url(#bO)"/><path d="m898 387h-37l-18-95h73z" fill="url(#bP)"/><path d="m861 387-90-53 36-63 36 21z" fill="url(#bQ)"/><path d="m898 639h-37v-252h37z" fill="url(#bR)"/><path d="m861 639-90-53v-252l90 53z" fill="url(#bS)"/><path d="m864 307h33a8 8 0 0 1 8 10l-10 53a8 8 0 0 1 -8 7h-13a8 8 0 0 1 -8-7l-11-53a8 8 0 0 1 9-10z" fill="url(#bT)"/><path d="m864 314h30a8 8 0 0 1 8 9l-10 48a8 8 0 0 1 -7 6h-12a8 8 0 0 1 -7-6l-9-48a8 8 0 0 1 7-9z" fill="url(#bU)"/><path d="m1043 324-36-84v336l36-21z" fill="url(#bV)"/><path d="m989 544-19-10v-294l19 10v-21l18 11v336l-18-11z" fill="url(#bW)"/><path d="m852 91h22l33 19-33 6h-22l-22-12z" fill="url(#bX)"/><path d="m830-21h77v131l-33 6h-22l-22-12z" fill="url(#bY)"/><g clip-path="url(#bZ)"><path d="m989 565-37-21v-356l37 21z" fill="url(#b0)"/></g><path d="m970 282v-126l-54 11v125z" fill="url(#b1)"/><path d="m898 639 72-42v-315l-54 10-18 95z" fill="url(#b2)"/></g><g fill="none" stroke-linecap="round" stroke-linejoin="round" stroke-width="3" transform="translate(22 21)"><path d="m872 408h16" stroke="url(#b3)"/><path d="m872 429h16" stroke="url(#b4)"/><path d="m872 450h16" stroke="url(#b5)"/><path d="m872 471h16" stroke="url(#b6)"/><path d="m872 492h16" stroke="url(#b7)"/><path d="m872 513h16" stroke="url(#b8)"/><path d="m872 534h16" stroke="url(#b9)"/><path d="m872 555h16" stroke="url(#ca)"/><path d="m872 576h16" stroke="url(#cb)"/><path d="m872 597h16" stroke="url(#cc)"/><path d="m872 618h16" stroke="url(#cd)"/></g><g fill="none" stroke-miterlimit="10" stroke-width="6" transform="translate(22 21)"><g clip-path="url(#ce)"><path d="m789 723v-272" stroke="url(#dg)"/><path d="m807 733 1-352" stroke="url(#cg)"/><path d="m825 744 1-190" stroke="url(#ch)"/><path d="m843 754 1-313" stroke="url(#ci)"/></g><g clip-path="url(#cj)"><path d="m916 733v-253" stroke="url(#ck)"/><path d="m934 723v-409" stroke="url(#cl)"/><path d="m952 712v-327" stroke="url(#cm)"/></g><path d="m1025 565v-231" stroke="url(#cn)"/><path d="m880 292v-125" stroke="url(#co)"/><path d="m898 292v-94" stroke="url(#cp)"/><path d="m861 177v115" stroke="url(#cq)"/><path d="m825 282v-147" stroke="url(#cr)"/><path d="m934 289v-112" stroke="url(#cs)"/><path d="m952 286v-77" stroke="url(#ct)"/></g><g transform="translate(22 21)"><circle cx="61" cy="691" fill="none" r="55" stroke="#fff" stroke-linejoin="round" stroke-width="9"/><g clip-path="url(#cu)"><path d="m61 674a18 18 0 0 1 17-11c10 0 17 8 18 19a18 18 0 0 1 -1 7 31 31 0 0 1 -9 15l-25 22-24-22a31 31 0 0 1 -9-16 18 18 0 0 1 -1-7c1-10 8-18 18-18 8 0 14 5 16 11zm0 0" fill="#ff8980"/></g></g><g transform="translate(22 21)"><circle cx="1352" cy="846" fill="none" r="54" stroke="#fff" stroke-linejoin="round" stroke-width="9"/><path d="m1355 876h-3a19 19 0 0 1 19-20h4a19 19 0 0 1 -20 20z" fill="#6a9923"/><path d="m1355 849h-3a19 19 0 0 1 19-20h4a19 19 0 0 1 -20 20z" fill="#6a9923"/><path d="m1352 821h3a14 14 0 0 0 14-13h-4a14 14 0 0 0 -13 13z" fill="#6a9923"/><g fill="#88b337"><path d="m1352 883a2 2 0 0 1 -2-1v-63a2 2 0 0 1 3 0v63a2 2 0 0 1 -1 1z"/><path d="m1328 856h4a19 19 0 0 1 20 20h-4a19 19 0 0 1 -20-20z"/><path d="m1328 829h4a19 19 0 0 1 20 20h-4a19 19 0 0 1 -20-20z"/><path d="m1352 821h-4a14 14 0 0 1 -14-13h4a14 14 0 0 1 14 13z"/></g></g><g transform="translate(22 21)"><circle cx="1206" cy="244" fill="none" r="53" stroke="#fff" stroke-linejoin="round" stroke-width="8"/><path d="m1182 217a2 2 0 0 0 -2 1 2 2 0 0 0 -1 2v37a3 3 0 0 0 3 2c6 0 15 2 22 9v-39a2 2 0 0 0 0-2c-6-9-16-10-22-10zm0 0" fill="#fff"/><path d="m1233 257v-37a2 2 0 0 0 -1-2 2 2 0 0 0 -2-1c-6 0-16 1-22 10a2 2 0 0 0 0 2v39c7-7 16-9 22-9a3 3 0 0 0 3-2zm0 0" fill="#fff"/><g fill="#e9a128"><path d="m1238 226h-1v31a6 6 0 0 1 -7 6c-5 0-13 1-19 7 10-3 21-1 27 0a2 2 0 0 0 3-2v-40a2 2 0 0 0 -3-2zm0 0"/><path d="m1176 257v-31h-2a2 2 0 0 0 -3 2v40a2 2 0 0 0 3 2c6-1 17-3 27 0-6-6-14-7-19-7a6 6 0 0 1 -7-6zm0 0"/></g></g><g transform="translate(22 21)"><path d="m681 1078-200-115 363-210 200 116z" fill="#104455"/><path d="m844 780 63 36-99 57-63-36zm0-5a4 4 0 0 0 -2 0l-101 59a4 4 0 0 0 0 6l65 38a4 4 0 0 0 4 0l101-58a4 4 0 0 0 0-7l-65-38a4 4 0 0 0 -2 0z" fill="url(#dh)"/><g fill="none" stroke-linecap="round" stroke-width="5"><path d="m772 837 36 21" stroke="url(#cw)" stroke-miterlimit="10"/><path d="m790 826 36 21" stroke="url(#cx)" stroke-miterlimit="10"/><path d="m807 816 37 21" stroke="url(#cy)" stroke-miterlimit="10"/><path d="m825 805 37 21" stroke="url(#cz)" stroke-miterlimit="10"/><path d="m843 795 37 21" stroke="url(#cA)" stroke-miterlimit="10"/><path d="m935 827-36 21" stroke="url(#cB)" stroke-miterlimit="10"/><path d="m953 837-36 21" stroke="url(#cC)" stroke-miterlimit="10"/><path d="m972 848-37 21" stroke="url(#cD)" stroke-miterlimit="10"/><path d="m990 858-37 21" stroke="url(#cE)" stroke-miterlimit="10"/><path d="m1008 869-36 21" stroke="url(#cF)" stroke-miterlimit="10"/><path d="m881 858-37 21" stroke="url(#cG)" stroke-miterlimit="10"/><path d="m899 869-37 21" stroke="url(#cH)" stroke-miterlimit="10"/><path d="m917 879-36 21" stroke="url(#cI)" stroke-miterlimit="10"/><path d="m935 890-36 21" stroke="url(#cJ)" stroke-miterlimit="10"/><path d="m953 900-36 21" stroke="url(#cK)" stroke-miterlimit="10"/><path d="m826 890 73 42" stroke="url(#cL)" stroke-miterlimit="10"/><path d="m790 994-164-94 91-52 164 94z" stroke="url(#cM)" stroke-linejoin="round"/><path d="m844 942-54 31" stroke="url(#cN)" stroke-linejoin="round"/><path d="m826 932-54 31" stroke="url(#cO)" stroke-linejoin="round"/><path d="m808 921-55 31" stroke="url(#cP)" stroke-linejoin="round"/><path d="m790 911-55 31" stroke="url(#cQ)" stroke-linejoin="round"/><path d="m772 900-55 32" stroke="url(#cR)" stroke-linejoin="round"/><path d="m753 890-54 31" stroke="url(#cS)" stroke-linejoin="round"/><path d="m735 879-54 32" stroke="url(#cT)" stroke-linejoin="round"/><path d="m717 869-54 31" stroke="url(#cU)" stroke-linejoin="round"/><path d="m608 911 164 94" stroke="url(#cV)" stroke-linejoin="round"/><path d="m644 952 109 63" stroke="url(#cW)" stroke-linejoin="round"/><path d="m626 963 109 63" stroke="url(#cX)" stroke-linejoin="round"/><path d="m608 973 109 63" stroke="url(#cY)" stroke-linejoin="round"/><path d="m681 1057-109-63 18-10 109 63z" stroke="url(#cZ)" stroke-linejoin="round"/><path d="m626 942-72 42" stroke="url(#c0)" stroke-linejoin="round"/><path d="m608 932-73 41" stroke="url(#c1)" stroke-linejoin="round"/><path d="m590 921-73 42" stroke="url(#c2)" stroke-linejoin="round"/></g></g><g transform="translate(22 21)"><path d="m590 879-109 84 200 115z" fill="url(#di)"/><path d="m953 669-363 210 91 199 363-209z" fill="url(#c4)"/><path d="m1044 869-200-116 109-84z" fill="url(#c5)"/><path d="m590 879 363-210-109 84-363 210z" fill="url(#c6)"/></g></svg>