<svg xmlns="http://www.w3.org/2000/svg" xmlns:xlink="http://www.w3.org/1999/xlink" width="0" height="0" style="position:absolute"><symbol id="Svg-logo" viewBox="0 0 190.5 50.2"><path fill="#282829" d="M35.3 30.2c0.4-0.2 0.6-0.1 0.8 0.1l1.2 2.2c0.1 0.2 0 0.5-0.2 0.7 -1.3 0.9-3.7 1.7-6.1 1.7 -2.7 0-4.9-0.8-6.4-2.4 -1.5-1.5-2.4-3.7-2.4-6.2 0-2.4 0.9-4.5 2.4-6 1.4-1.4 3.4-2.3 5.9-2.3 2.9 0 5 1.1 6.2 2.8 1.2 1.6 1.6 3.7 1.4 6.2 0 0.3-0.2 0.5-0.5 0.5H27.2c0.1 1.1 0.5 1.9 1.1 2.5 0.7 0.8 1.8 1.2 3.1 1.2C32.9 31.4 34.2 31 35.3 30.2zM33.8 24.9c0-0.9-0.3-1.6-0.8-2.2 -0.5-0.6-1.4-1-2.4-1 -1.1 0-2 0.4-2.5 1 -0.5 0.6-0.8 1.3-0.9 2.2H33.8zM48.8 31.2c0.4-0.2 0.6-0.7 0.6-1.2 0-0.8-0.6-1.1-1.4-1.5 -1.1-0.5-2.3-0.8-3.5-1.3 -1.8-0.8-2.8-2.2-2.8-4.3 0-1.4 0.5-2.6 1.6-3.5 1.1-0.8 2.7-1.3 4.8-1.3 2.6 0 4.1 0.5 5.4 1.2 0.4 0.2 0.4 0.5 0.2 0.7l-1.2 2.5c-0.1 0.3-0.4 0.3-0.6 0.2 -1.4-0.8-2.5-1-3.6-1 -0.6 0-1.1 0.1-1.5 0.3 -0.3 0.2-0.5 0.5-0.5 0.9 0 0.7 0.6 1.1 1.4 1.4 1.1 0.4 2.3 0.7 3.5 1.3 2 1 2.9 2.3 2.9 4.1 0 1.6-0.7 3-2 3.9 -1.2 0.8-2.8 1.3-4.7 1.3 -2.8 0-4.5-0.6-5.8-1.3 -0.3-0.2-0.4-0.4-0.2-0.7l1.2-2.5c0.1-0.3 0.4-0.4 0.7-0.2 1.4 0.9 2.5 1.3 4.1 1.3C47.9 31.6 48.4 31.5 48.8 31.2zM63.6 28.3c0 0.8 0.1 1.4 0.4 1.8 0.3 0.6 0.8 0.8 1.6 0.8 0.7 0 1.4-0.2 2.3-0.9 0.3-0.2 0.6-0.2 0.7 0.1l1.2 2.6c0.1 0.2 0 0.5-0.2 0.7 -1.3 0.9-3.2 1.5-5.3 1.5 -2 0-3.3-0.6-4.1-1.6 -1-1.2-1.3-2.9-1.3-4.5v-6.8h-1.8c-0.3 0-0.5-0.2-0.5-0.6v-2.6c0-0.3 0.2-0.5 0.5-0.5h1.8v-3.2c0-0.3 0.2-0.5 0.5-0.5h3.6c0.3 0 0.5 0.2 0.5 0.5v3.2h4.4c0.3 0 0.5 0.2 0.5 0.5v2.6c0 0.3-0.2 0.6-0.5 0.6h-4.4V28.3zM73.4 18.5h3.6c0.3 0 0.5 0.2 0.5 0.5v15.1c0 0.3-0.2 0.5-0.5 0.5h-3.6c-0.3 0-0.5-0.2-0.5-0.5V19C72.9 18.7 73.1 18.5 73.4 18.5zM87.5 19.9c0.3-0.4 0.7-0.7 1.1-1 0.9-0.5 1.8-0.7 2.9-0.7 1.1 0 2.2 0.2 3.1 0.7 0.8 0.4 1.5 1 2 1.7 0.5-0.6 1.2-1.2 2.2-1.7 0.8-0.4 1.9-0.6 3.1-0.6 1.7 0 3.4 0.5 4.6 1.6 1.1 1 1.8 2.6 1.8 4.9v9.4c0 0.3-0.2 0.5-0.5 0.5h-3.6c-0.3 0-0.5-0.2-0.5-0.5V25.7c0-1.1-0.2-2.2-0.7-2.9 -0.4-0.5-1-0.9-2-0.9 -1.1 0-1.8 0.5-2.2 1.3 -0.5 0.9-0.6 2-0.6 3.4v7.4c0 0.3-0.2 0.5-0.5 0.5h-3.6c-0.3 0-0.5-0.2-0.5-0.5V25.7c0-1.1-0.2-2.2-0.7-2.9 -0.4-0.5-1-0.9-2-0.9 -1.1 0-1.8 0.5-2.2 1.3 -0.4 0.7-0.6 1.8-0.6 3v7.9c0 0.3-0.2 0.5-0.5 0.5h-3.6c-0.3 0-0.5-0.2-0.5-0.5V19c0-0.3 0.2-0.5 0.5-0.5h3.5c0.3 0 0.5 0.2 0.5 0.5v0.9H87.5zM114.8 20.4c1.6-1.4 3.7-2.2 6.1-2.2s4.6 0.8 6.1 2.2c1.7 1.4 2.6 3.6 2.6 6.2 0 2.6-1 4.8-2.6 6.2 -1.6 1.4-3.7 2.2-6.1 2.2s-4.5-0.8-6.1-2.2c-1.7-1.4-2.7-3.6-2.7-6.2C112.1 24 113.1 21.8 114.8 20.4zM117.9 29.9c0.7 0.8 1.8 1.3 2.9 1.3 1.2 0 2.2-0.5 2.9-1.3 0.7-0.8 1.2-2 1.2-3.4 0-1.3-0.5-2.5-1.2-3.4 -0.7-0.8-1.8-1.2-2.9-1.2 -1.2 0-2.2 0.5-2.9 1.2 -0.7 0.8-1.2 2-1.2 3.4C116.7 27.9 117.2 29.1 117.9 29.9zM139.1 28.3c0 0.8 0.1 1.4 0.4 1.8 0.3 0.6 0.8 0.8 1.6 0.8 0.7 0 1.4-0.2 2.3-0.9 0.3-0.2 0.6-0.2 0.7 0.1l1.2 2.6c0.1 0.2 0 0.5-0.2 0.7 -1.3 0.9-3.2 1.5-5.3 1.5 -2 0-3.3-0.6-4.1-1.6 -1-1.2-1.3-2.9-1.3-4.5v-6.8h-1.8c-0.3 0-0.5-0.2-0.5-0.6v-2.6c0-0.3 0.2-0.5 0.5-0.5h1.8v-3.2c0-0.3 0.2-0.5 0.5-0.5h3.6c0.3 0 0.5 0.2 0.5 0.5v3.2h4.4c0.3 0 0.5 0.2 0.5 0.5v2.6c0 0.3-0.2 0.6-0.5 0.6h-4.4V28.3zM160.2 30.2c0.4-0.2 0.6-0.1 0.8 0.1l1.2 2.2c0.1 0.2 0 0.5-0.2 0.7 -1.3 0.9-3.7 1.7-6.1 1.7 -2.7 0-4.9-0.8-6.4-2.4 -1.5-1.5-2.4-3.7-2.4-6.2 0-2.4 0.9-4.5 2.4-6 1.4-1.4 3.4-2.3 5.9-2.3 2.9 0 5 1.1 6.2 2.8 1.2 1.6 1.6 3.7 1.4 6.2 0 0.3-0.2 0.5-0.5 0.5h-10.5c0.1 1.1 0.5 1.9 1.1 2.5 0.7 0.8 1.8 1.2 3.1 1.2C157.8 31.4 159.1 31 160.2 30.2zM158.7 24.9c0-0.9-0.3-1.6-0.8-2.2 -0.5-0.6-1.4-1-2.4-1 -1.1 0-2 0.4-2.5 1 -0.5 0.6-0.8 1.3-0.9 2.2H158.7zM72.5 12.8c0-1.5 1.2-2.7 2.7-2.7 1.5 0 2.7 1.2 2.7 2.7 0 1.5-1.2 2.7-2.7 2.7C73.7 15.6 72.5 14.3 72.5 12.8"></path></symbol><symbol id="Svg-menu" viewBox="0 0 233 135"><path d="M233 60.5c0-1.38-1.12-2.5-2.5-2.5H2.5C1.12 58 0 59.12 0 60.5v14C0 75.88 1.12 77 2.5 77h228c1.38 0 2.5-1.12 2.5-2.5v-14zM233 2.5c0-1.38-1.12-2.5-2.5-2.5H2.5C1.12 0 0 1.12 0 2.5v14C0 17.88 1.12 19 2.5 19h228c1.38 0 2.5-1.12 2.5-2.5v-14zM233 118.5c0-1.38-1.12-2.5-2.5-2.5H2.5c-1.38 0-2.5 1.12-2.5 2.5v14c0 1.38 1.12 2.5 2.5 2.5h228c1.38 0 2.5-1.12 2.5-2.5v-14z"></path></symbol><symbol id="Svg-close" viewBox="473.9578552 275.4578552 9.084363 9.084363"><path d="M482.297 275.496l-3.797 3.797-3.797-3.797c-.05-.05-.133-.05-.184 0l-.524.523c-.05.05-.05.132 0 .183l3.797 3.797-3.797 3.797c-.05.05-.05.133 0 .184l.523.524c.05.05.132.05.183 0l3.797-3.797 3.797 3.797c.05.05.133.05.184 0l.524-.523c.05-.05.05-.132 0-.183L479.207 280l3.797-3.797c.05-.05.05-.133 0-.184l-.523-.524c-.05-.05-.132-.05-.183 0z"></path></symbol></svg>