<?xml version="1.0" encoding="UTF-8"?>
<svg width="109px" height="33px" viewBox="0 0 109 33" version="1.1" xmlns="http://www.w3.org/2000/svg" xmlns:xlink="http://www.w3.org/1999/xlink">
    <!-- Generator: Sketch 52.2 (67145) - http://www.bohemiancoding.com/sketch -->
    <title>Group 22 Copy 2</title>
    <desc>Created with Sketch.</desc>
    <defs>
        <polygon id="path-1" points="0.0130777778 0.893938462 29.8555099 0.893938462 29.8555099 11.7692308 0.0130777778 11.7692308"></polygon>
    </defs>
    <g id="Symbols" stroke="none" stroke-width="1" fill="none" fill-rule="evenodd">
        <g id="mobile-header" transform="translate(-32.000000, -2.000000)">
            <g id="Group-22-Copy-2" transform="translate(32.000000, 2.000000)">
                <g id="Group-3" transform="translate(0.000000, 21.135708)">
                    <mask id="mask-2" fill="white">
                        <use xlink:href="#path-1"></use>
                    </mask>
                    <g id="Clip-2"></g>
                    <path d="M16.4091765,6.16393846 C15.5531765,6.64255385 14.5056333,6.64386154 13.6496333,6.16524615 L4.2481642,0.893938462 L0.0130777778,3.84670769 L13.6483123,11.4104 C14.5056333,11.8890154 15.5544975,11.8890154 16.4104975,11.4104 L29.8555099,3.77609231 L25.5926827,0.910938462 L16.4091765,6.16393846 Z" id="Fill-1" fill="#FFFFFF" mask="url(#mask-2)"></path>
                </g>
                <path d="M25.5928148,22.0471692 L29.8794198,24.9580923 L29.8041235,9.95755385 C29.8041235,8.95586154 29.2598765,8.03132308 28.3787778,7.53832308 L14.9020617,0.000784615385 L14.9020617,0.160323077 C14.9020617,2.16763077 14.9165926,5.64347692 14.9165926,5.64347692 L24.1952099,10.2452462 C25.0763086,10.7382462 25.6205556,11.6627846 25.6205556,12.6631692 L25.5928148,22.0471692 Z" id="Fill-4" fill="#DADADA"></path>
                <path d="M0,9.95742308 L0.0145308642,24.9815 L4.2482963,22.0352692 L4.26150617,12.8029615 C4.26150617,11.7986538 4.80707407,10.8741154 5.69081481,10.3811154 L14.9165926,5.64465385 C14.9165926,5.64465385 14.9020617,2.29696154 14.9020617,0.147115385 L14.9020617,0.000653846154 L1.42666667,7.53819231 C0.545567901,8.03119231 0,8.95573077 0,9.95742308" id="Fill-6" fill="#F0F0F0"></path>
                <path d="M13.5175346,10.2894462 L8.52420123,13.0931385 L14.9019296,16.6722923 L21.280979,13.0931385 L16.2863247,10.2894462 C15.4276827,9.80690769 14.3761765,9.80690769 13.5175346,10.2894462" id="Fill-8" fill="#FFFFFF"></path>
                <path d="M14.902458,23.8069308 L19.8588037,21.0241615 C20.7372605,20.5311615 21.2815074,19.6079308 21.2815074,18.6062385 L21.2815074,13.0930077 L14.902458,16.6721615 L14.902458,23.8069308 Z" id="Fill-10" fill="#F0F0F0"></path>
                <path d="M8.52393704,13.0924846 L8.52393704,18.6070231 C8.52393704,19.6074077 9.06686296,20.5306385 9.94664074,21.0236385 L14.9029864,23.8064077 L14.9029864,16.6716385 L8.52393704,13.0924846 Z" id="Fill-12" fill="#DADADA"></path>
                <path d="M39.726458,25.6803308 C39.4490506,25.9366385 39.1254086,26.0647923 38.7568531,26.0647923 C38.3486679,26.0647923 38.021063,25.9366385 37.7713963,25.6803308 C37.5217296,25.4240231 37.3962358,25.1036385 37.3962358,24.7191769 L37.3962358,8.15986923 C37.3962358,7.79371538 37.5256926,7.48248462 37.7846062,7.22617692 C38.0435198,6.96986923 38.3777296,6.84171538 38.7832728,6.84171538 C39.1531494,6.84171538 39.4728284,6.96986923 39.7409889,7.22617692 C40.0091494,7.48248462 40.1425691,7.79371538 40.1425691,8.15986923 L40.1425691,24.7191769 C40.1425691,25.1036385 40.0038654,25.4240231 39.726458,25.6803308" id="Fill-14" fill="#FFFFFF"></path>
                <path d="M58.1372473,12.7324769 C57.5824325,11.6248615 56.8109757,10.7552462 55.821556,10.1236308 C54.8321362,9.49070769 53.7079757,9.17555385 52.4503955,9.17555385 C51.1928152,9.17555385 50.0699757,9.48809231 49.080556,10.1092462 C48.0911362,10.7330154 47.3196794,11.5974 46.7648646,12.7050154 C46.2100498,13.8126308 45.9326424,15.0614769 45.9326424,16.4541692 C45.9326424,17.8272462 46.2100498,19.0669385 46.7648646,20.1732462 C47.3196794,21.2821692 48.0911362,22.1517846 49.080556,22.7834 C50.0699757,23.4150154 51.1928152,23.7301692 52.4503955,23.7301692 C53.7079757,23.7301692 54.8321362,23.4150154 55.821556,22.7834 C56.8109757,22.1517846 57.5824325,21.2821692 58.1372473,20.1732462 C58.6920621,19.0669385 58.9694695,17.8272462 58.9694695,16.4541692 C58.9694695,15.0797846 58.6920621,13.8400923 58.1372473,12.7324769 M60.6207041,21.4783231 C59.8162226,22.9795538 58.7013091,24.1656308 57.2786053,25.0352462 C55.8532597,25.9048615 54.2442967,26.3390154 52.4503955,26.3390154 C50.6564942,26.3390154 49.0475313,25.9048615 47.6235066,25.0352462 C46.1994819,24.1656308 45.0858893,22.9795538 44.2814078,21.4783231 C43.4756053,19.9784 43.0753461,18.3032462 43.0753461,16.4541692 C43.0753461,14.6050923 43.4756053,12.9286308 44.2814078,11.4274 C45.0858893,9.92616923 46.1994819,8.7414 47.6235066,7.87178462 C49.0475313,7.00216923 50.6564942,6.56670769 52.4503955,6.56670769 C54.2442967,6.56670769 55.8532597,7.00216923 57.2786053,7.87178462 C58.7013091,8.7414 59.8162226,9.92616923 60.6207041,11.4274 C61.4251856,12.9286308 61.8267658,14.6050923 61.8267658,16.4541692 C61.8267658,18.3032462 61.4251856,19.9784 60.6207041,21.4783231" id="Fill-16" fill="#FFFFFF"></path>
                <path d="M79.7263329,7.18498462 C79.9746786,7.41383077 80.1001724,7.71983077 80.1001724,8.10429231 C80.1001724,8.48875385 79.9746786,8.79213846 79.7263329,9.01052308 C79.4766663,9.23021538 79.1569872,9.34006154 78.7686169,9.34006154 L73.830765,9.34006154 L73.830765,24.7472923 C73.830765,25.1134462 73.6973453,25.4233692 73.4278638,25.6809846 C73.1597033,25.9372923 72.8215305,26.0654462 72.4159872,26.0654462 C72.009123,26.0654462 71.6709502,25.9372923 71.4027897,25.6809846 C71.1346292,25.4233692 71.0025305,25.1134462 71.0025305,24.7472923 L71.0025305,9.34006154 L66.0910984,9.34006154 C65.702728,9.34006154 65.38437,9.2276 65.1333823,8.99744615 C64.8850366,8.7686 64.7595428,8.4626 64.7595428,8.07813846 C64.7595428,7.71067692 64.8850366,7.41383077 65.1333823,7.18498462 C65.38437,6.95613846 65.702728,6.84106154 66.0910984,6.84106154 L78.7686169,6.84106154 C79.1569872,6.84106154 79.4766663,6.95613846 79.7263329,7.18498462" id="Fill-18" fill="#FFFFFF"></path>
                <path d="M107.805431,7.14405385 C108.101332,7.40036154 108.249283,7.73905385 108.249283,8.15882308 C108.249283,8.30659231 108.221542,8.46220769 108.16606,8.62697692 L102.423727,25.2412077 C102.349752,25.4975154 102.197838,25.6949769 101.966665,25.8309769 C101.734172,25.9695923 101.489789,26.0467462 101.230875,26.0650538 C100.971962,26.0650538 100.722295,25.9918231 100.481875,25.8453615 C100.241456,25.6975923 100.067085,25.4870538 99.9561222,25.2124385 L95.6272457,15.1889769 L91.3274309,25.2124385 C91.2164679,25.4870538 91.0407765,25.6975923 90.8003568,25.8453615 C90.559937,25.9918231 90.3010235,26.0650538 90.023616,26.0650538 C89.7647025,26.0467462 89.5242827,25.9643615 89.3023568,25.8165923 C89.0804309,25.6714385 88.9324802,25.4792077 88.8585049,25.2412077 L83.1174926,8.62697692 C83.0620111,8.46220769 83.0329494,8.30659231 83.0329494,8.15882308 C83.0329494,7.75736154 83.184863,7.42259231 83.4913321,7.15713077 C83.7951593,6.89297692 84.1240852,6.75959231 84.4754679,6.75959231 C84.7713691,6.75959231 85.0395296,6.83805385 85.2799494,6.99236154 C85.5203691,7.14797692 85.6775667,7.35459231 85.751542,7.60959231 L90.4397272,21.3691308 L94.4621346,11.5915154 C94.5730975,11.3365154 94.739542,11.1351308 94.9614679,10.9873615 C95.1833938,10.8422077 95.4330605,10.7676692 95.7104679,10.7676692 C95.9878753,10.7676692 96.237542,10.8422077 96.4594679,10.9873615 C96.6813938,11.1351308 96.8478383,11.3365154 96.9588012,11.5915154 L100.870246,21.3691308 L105.53069,7.60959231 C105.604665,7.33497692 105.761863,7.12574615 106.002283,6.97928462 C106.242702,6.83282308 106.52011,6.75959231 106.835826,6.75959231 C107.185888,6.75959231 107.50953,6.88774615 107.805431,7.14405385" id="Fill-20" fill="#FFFFFF"></path>
            </g>
        </g>
    </g>
</svg>