<?xml version="1.0" encoding="UTF-8" standalone="no"?>
<!-- Generator: Adobe Illustrator 17.1.0, SVG Export Plug-In . SVG Version: 6.00 Build 0)  -->
<!DOCTYPE svg PUBLIC "-//W3C//DTD SVG 1.1//EN" "http://www.w3.org/Graphics/SVG/1.1/DTD/svg11.dtd">
<svg id="layer1" xmlns="http://www.w3.org/2000/svg" xml:space="preserve" height="65px" viewBox="0 0 380 65" width="380px" version="1.1" y="0px" x="0px" xmlns:xlink="http://www.w3.org/1999/xlink" enable-background="new 0 0 380 65">
	<rect y="11" x="12" height="43" width="43" fill="#fff"/>
		<g fill="#fff">
			<path d="m174.86 30.682l2.079-5.501 0.362 0.314c1.276 1.04 3.009 1.927 4.642 1.961 1.462 0.035 2.176-0.354 1.981-1.591-0.144-0.924-1.186-1.086-1.837-1.215l-1.43-0.286c-2.781-0.52-5.121-2.235-5.121-5.485 0-4.915 4.238-7.671 8.497-7.671 2.239 0 4.291 0.57 6.214 1.82l-1.806 4.873c-0.99-0.713-2.487-1.717-4.386-1.786-0.623-0.024-2.05 0.304-1.593 1.754 0.197 0.617 1.083 0.876 1.626 1.009l1.612 0.389c3.013 0.702 5.196 2.418 5.196 5.927 0 4.94-4.262 7.386-8.496 7.386-2.46 0.001-5.32-0.703-7.53-1.898"/>
			<rect y="11.545" x="166.07" height="20.725" width="7.256"/>
			<polygon points="157.9 11.545 165.33 11.545 157.74 32.27 151.71 32.27 144.14 11.545 151.55 11.545 154.72 24.051"/>
			<path d="m126.55 32.27h7.538l0.572-2.603h5.379l0.714 2.603h7.54l-7.059-20.725h-7.907l-6.77 20.725zm10.81-14.743c0.133 0.883 1.431 7.226 1.431 7.226h-2.852l1.42-7.226z"/>
			<path d="m115.21 26.319h0.486c2.392 0 4.165-1.435 4.165-4.139 0-2.912-1.572-4.537-4.197-4.537h-0.453v8.676zm-7.3-14.774h7.429c6.628 0 11.696 3.044 11.696 10.661 0 6.137-4.131 10.065-9.929 10.065l-9.197-0.011v-20.715z"/>
			<path d="m103.57 12.195l0.387 3.4c0.091 0.808 0.551 2.745-0.017 2.486-0.356-0.161-0.65-1.039-0.942-1.817-0.148-0.397-0.855-2.269-1.039-2.407-0.893-0.668-3.12-1.42-4.626-1.427-4.57-0.018-7.592 3.353-7.592 9.334 0 4.29 2.054 9.436 7.278 9.436 1.872 0 5.458-0.589 6.434-3.253 0.44-1.205 0.844-2.276 1.137-1.952 0.217 0.238-0.065 1.203-0.196 1.723-0.615 2.47-0.649 3.218-0.844 3.315-2.36 1.184-5.387 1.574-8.037 1.574-8.424 0-11.333-4.915-11.333-9.829 0-8.528 5.238-12.12 13.358-11.753 2.057 0.078 4.112 0.442 6.032 1.17"/>
			<path d="m78.699 12.573l-1.349-0.471c-0.454-0.407 0.098-0.521 0.098-0.521s1.95 0.361 6.807-0.049 0.422 0.083 0.129 0.426l-1.592 0.681c-1.039 0.454-1.039 0.193-1.039 1.331l-0.009 10.562c0 8.261-8.402 8.075-10.039 8.075-0.778 0-8.484 0-8.484-6.631v-11.18c0-1.95 0.208-1.898-0.441-2.127l-1.95-0.731s-0.328-0.468 0.26-0.437c1.591 0.081 3.899 0.423 9.323 0.031 0 0 0.471 0.115 0.162 0.455l-1.621 0.457c-1.234 0.552-1.071 0.129-1.104 1.396l0.038 11.025c0 2.703 1.39 6.049 5.767 6.049 5.954 0 6.009-5.151 6.009-6.296l0.011-10.922c0.064-1.028-0.066-0.734-0.976-1.123"/>
		</g>
	<rect y="36.863" x="63.224" height=".864" width="305.67" fill="#fff"/>
	<g fill="#fff">
		<path d="m73.582 47.518c-0.009 0.378-0.025 0.744-0.047 1.1-0.022 0.355-0.071 0.703-0.145 1.042-0.074 0.34-0.18 0.672-0.317 0.999-0.137 0.326-0.323 0.651-0.557 0.975-0.256 0.355-0.542 0.662-0.857 0.921s-0.654 0.471-1.019 0.638c-0.364 0.166-0.749 0.289-1.154 0.368s-0.825 0.118-1.262 0.118c-0.819 0-1.569-0.133-2.25-0.398s-1.267-0.64-1.758-1.123c-0.49-0.484-0.871-1.063-1.144-1.737-0.272-0.675-0.408-1.421-0.408-2.24 0-0.846 0.137-1.614 0.412-2.304 0.274-0.69 0.66-1.28 1.157-1.768s1.092-0.866 1.785-1.133c0.693-0.268 1.459-0.401 2.301-0.401 1.07 0 2.008 0.242 2.813 0.725 0.805 0.484 1.432 1.213 1.882 2.189l-2.57 1.073c-0.094-0.247-0.214-0.472-0.358-0.675-0.144-0.202-0.31-0.377-0.499-0.523s-0.4-0.259-0.634-0.337c-0.234-0.079-0.488-0.118-0.762-0.118-0.445 0-0.837 0.097-1.174 0.29s-0.62 0.446-0.847 0.759-0.398 0.665-0.513 1.056-0.172 0.785-0.172 1.181c0 0.405 0.06 0.802 0.179 1.191s0.295 0.738 0.526 1.046c0.232 0.308 0.519 0.555 0.864 0.742 0.344 0.187 0.739 0.28 1.184 0.28 0.292 0 0.566-0.038 0.82-0.115 0.254-0.076 0.477-0.19 0.668-0.341s0.347-0.338 0.469-0.563c0.121-0.225 0.196-0.488 0.223-0.789h-2.213v-2.125h5.377v-0.003z"/>
		<path d="m84.702 53.333h-3.373l-2.55-4.007h-0.034v4.007h-2.705v-10.417h4.048c0.513 0 0.991 0.063 1.434 0.189s0.826 0.319 1.15 0.58c0.324 0.261 0.578 0.593 0.762 0.995 0.184 0.403 0.277 0.883 0.277 1.44 0 0.36-0.05 0.703-0.148 1.029-0.099 0.326-0.245 0.62-0.439 0.88-0.193 0.261-0.432 0.481-0.715 0.661s-0.609 0.304-0.978 0.371l3.271 4.272zm-5.958-5.748h0.263c0.22 0 0.443-0.015 0.668-0.044s0.427-0.09 0.607-0.182 0.326-0.223 0.439-0.391c0.112-0.169 0.169-0.395 0.169-0.678s-0.056-0.51-0.169-0.681c-0.112-0.171-0.259-0.302-0.439-0.395-0.18-0.092-0.382-0.153-0.607-0.182s-0.448-0.044-0.668-0.044h-0.263v2.597z"/>
		<path d="m89.733 51.525l-0.715 1.808h-2.874l4.007-10.417h2.955l3.926 10.417h-2.888l-0.681-1.808h-3.73zm1.895-5.39h-0.027l-1.12 3.319h2.253l-1.106-3.319z"/>
		<path d="m99.16 42.916h3.839c0.481 0 0.947 0.061 1.396 0.182 0.45 0.121 0.871 0.293 1.265 0.516s0.752 0.491 1.076 0.806 0.6 0.666 0.83 1.052c0.229 0.387 0.408 0.804 0.536 1.252 0.128 0.447 0.192 0.914 0.192 1.4s-0.064 0.952-0.192 1.4-0.308 0.865-0.54 1.252c-0.232 0.387-0.509 0.738-0.833 1.052s-0.681 0.584-1.073 0.806c-0.391 0.223-0.812 0.395-1.262 0.516s-0.915 0.182-1.396 0.182h-3.85v-10.416zm2.7 8.123h0.614c0.405 0 0.788-0.056 1.15-0.169 0.362-0.112 0.679-0.288 0.951-0.526s0.489-0.541 0.651-0.907c0.162-0.367 0.243-0.804 0.243-1.312 0-0.468-0.073-0.883-0.219-1.245s-0.351-0.667-0.614-0.914-0.576-0.435-0.938-0.563c-0.362-0.128-0.761-0.192-1.198-0.192h-0.641v5.828h0.01z"/>
		<path d="m119.83 42.916v5.856c0 0.337-0.008 0.67-0.024 0.999-0.016 0.328-0.06 0.649-0.132 0.961-0.072 0.313-0.181 0.614-0.327 0.904s-0.347 0.561-0.604 0.813c-0.216 0.216-0.461 0.397-0.735 0.543s-0.562 0.265-0.864 0.358c-0.301 0.092-0.611 0.159-0.928 0.199s-0.626 0.061-0.928 0.061c-0.306 0-0.617-0.02-0.934-0.061-0.317-0.04-0.625-0.107-0.924-0.199s-0.586-0.211-0.86-0.358c-0.274-0.146-0.52-0.327-0.735-0.543-0.261-0.252-0.464-0.523-0.611-0.813-0.146-0.29-0.255-0.591-0.327-0.904s-0.116-0.633-0.132-0.961-0.024-0.661-0.024-0.999v-5.856h2.705v5.485c0 0.225 0.006 0.452 0.017 0.681s0.036 0.449 0.074 0.658c0.038 0.209 0.097 0.405 0.175 0.587 0.079 0.182 0.187 0.341 0.324 0.476s0.307 0.241 0.509 0.317 0.45 0.115 0.742 0.115c0.288 0 0.534-0.038 0.739-0.115 0.205-0.076 0.374-0.182 0.509-0.317s0.242-0.293 0.32-0.476c0.079-0.182 0.138-0.378 0.179-0.587 0.04-0.209 0.065-0.428 0.074-0.658 0.009-0.229 0.013-0.457 0.013-0.681v-5.485h2.69z"/>
		<path d="m125.09 51.525l-0.715 1.808h-2.88l4.007-10.417h2.955l3.926 10.417h-2.89l-0.681-1.808h-3.73zm1.89-5.39h-0.027l-1.12 3.319h2.253l-1.1-3.319z"/>
		<path d="m137.93 53.333h-2.705v-8.123h-2.24v-2.294h7.185v2.294h-2.24v8.123z"/>
		<path d="m145.22 45.21v1.741h3.056v2.294h-3.056v1.795h3.225v2.294h-5.93v-10.418h5.93v2.294h-3.22z"/>
		<path d="m163.34 45.595c-0.252-0.207-0.531-0.373-0.837-0.499s-0.625-0.189-0.958-0.189c-0.126 0-0.256 0.018-0.391 0.054s-0.26 0.09-0.374 0.162c-0.115 0.072-0.209 0.163-0.283 0.273s-0.111 0.237-0.111 0.381c0 0.153 0.04 0.283 0.121 0.391s0.182 0.2 0.304 0.277c0.121 0.076 0.252 0.141 0.391 0.192 0.139 0.052 0.268 0.096 0.385 0.132l0.688 0.209c0.364 0.108 0.703 0.237 1.015 0.388 0.313 0.151 0.584 0.338 0.813 0.563s0.41 0.491 0.543 0.799 0.199 0.674 0.199 1.096c0 0.256-0.017 0.514-0.051 0.772s-0.092 0.509-0.175 0.752c-0.083 0.243-0.195 0.473-0.334 0.691s-0.313 0.415-0.519 0.59c-0.409 0.346-0.871 0.596-1.386 0.749s-1.038 0.229-1.569 0.229c-0.657 0-1.298-0.105-1.923-0.314s-1.205-0.5-1.741-0.874l1.16-2.186c0.171 0.148 0.349 0.288 0.533 0.418s0.378 0.245 0.58 0.344 0.412 0.177 0.627 0.233c0.216 0.056 0.439 0.084 0.668 0.084 0.157 0 0.315-0.02 0.472-0.061 0.157-0.04 0.298-0.103 0.422-0.189 0.124-0.085 0.224-0.195 0.3-0.327 0.076-0.133 0.115-0.291 0.115-0.476 0-0.189-0.058-0.349-0.175-0.479s-0.26-0.242-0.428-0.334c-0.169-0.092-0.347-0.168-0.536-0.226s-0.355-0.108-0.499-0.148c-0.427-0.121-0.814-0.247-1.16-0.378-0.346-0.13-0.642-0.302-0.887-0.516s-0.435-0.482-0.57-0.806-0.202-0.738-0.202-1.241c0-0.526 0.089-1.005 0.266-1.437 0.178-0.432 0.426-0.799 0.745-1.103s0.698-0.539 1.137-0.705 0.919-0.25 1.44-0.25c0.261 0 0.535 0.02 0.823 0.061 0.288 0.04 0.573 0.098 0.857 0.172 0.283 0.074 0.56 0.164 0.83 0.27s0.522 0.224 0.756 0.354l-1.05 2.102z"/>
		<path d="m174.71 46.411c-0.139-0.189-0.298-0.354-0.476-0.496s-0.369-0.261-0.573-0.358c-0.205-0.097-0.419-0.17-0.644-0.219-0.225-0.05-0.452-0.074-0.681-0.074-0.414 0-0.792 0.074-1.133 0.223-0.342 0.148-0.634 0.353-0.877 0.614s-0.432 0.567-0.567 0.917c-0.135 0.351-0.202 0.729-0.202 1.133 0 0.414 0.067 0.794 0.202 1.14s0.326 0.644 0.573 0.894 0.544 0.445 0.891 0.587c0.346 0.142 0.731 0.213 1.154 0.213 0.22 0 0.439-0.026 0.658-0.078 0.218-0.052 0.427-0.126 0.627-0.223s0.389-0.213 0.567-0.347c0.178-0.135 0.338-0.288 0.482-0.459v3.245c-0.225 0.067-0.436 0.132-0.634 0.192-0.198 0.061-0.391 0.112-0.58 0.155s-0.379 0.076-0.57 0.101c-0.191 0.025-0.392 0.037-0.604 0.037-0.729 0-1.427-0.133-2.095-0.398s-1.274-0.643-1.818-1.133c-0.576-0.522-0.999-1.114-1.268-1.778-0.27-0.663-0.405-1.384-0.405-2.162 0-0.715 0.13-1.401 0.391-2.058s0.643-1.241 1.147-1.754c0.256-0.261 0.537-0.496 0.843-0.705s0.629-0.387 0.968-0.533c0.34-0.146 0.692-0.258 1.056-0.334s0.729-0.115 1.093-0.115c0.436 0 0.857 0.046 1.261 0.138 0.405 0.092 0.81 0.222 1.214 0.388v3.247z"/>
		<path d="m184.37 46.937v-4.021h2.705v10.417h-2.705v-4.271h-3.913v4.271h-2.705v-10.417h2.705v4.021h3.91z"/>
		<path d="m194.88 42.572c0.499 0 0.988 0.06 1.467 0.179s0.932 0.289 1.359 0.509 0.821 0.489 1.181 0.806 0.669 0.675 0.928 1.073c0.259 0.398 0.461 0.831 0.607 1.299s0.219 0.965 0.219 1.491c0 0.846-0.143 1.62-0.428 2.324-0.286 0.704-0.685 1.309-1.198 1.815s-1.121 0.901-1.825 1.184-1.474 0.425-2.311 0.425c-0.558 0-1.087-0.064-1.589-0.192-0.501-0.128-0.965-0.311-1.39-0.55-0.425-0.238-0.81-0.527-1.154-0.867s-0.636-0.723-0.877-1.15-0.426-0.892-0.557-1.393c-0.13-0.501-0.196-1.033-0.196-1.596 0-0.526 0.073-1.023 0.219-1.491s0.35-0.901 0.611-1.299 0.57-0.756 0.928-1.073 0.75-0.586 1.177-0.806 0.88-0.39 1.359-0.509c0.47-0.119 0.96-0.179 1.46-0.179zm0 2.625c-0.405 0-0.785 0.075-1.14 0.226s-0.667 0.353-0.934 0.607c-0.268 0.254-0.479 0.546-0.634 0.877s-0.233 0.676-0.233 1.036c0 0.45 0.078 0.865 0.233 1.245s0.367 0.708 0.634 0.985c0.268 0.277 0.579 0.493 0.934 0.648s0.735 0.233 1.14 0.233 0.786-0.078 1.144-0.233c0.358-0.155 0.669-0.371 0.934-0.648s0.476-0.605 0.631-0.985 0.233-0.795 0.233-1.245c0-0.36-0.078-0.705-0.233-1.036s-0.365-0.623-0.631-0.877c-0.265-0.254-0.577-0.456-0.934-0.607-0.36-0.151-0.74-0.226-1.14-0.226z"/>
		<path d="m208.14 42.572c0.499 0 0.988 0.06 1.467 0.179s0.932 0.289 1.359 0.509 0.821 0.489 1.181 0.806 0.669 0.675 0.928 1.073c0.259 0.398 0.461 0.831 0.607 1.299s0.219 0.965 0.219 1.491c0 0.846-0.143 1.62-0.428 2.324-0.286 0.704-0.685 1.309-1.198 1.815s-1.121 0.901-1.825 1.184-1.474 0.425-2.311 0.425c-0.558 0-1.087-0.064-1.589-0.192-0.501-0.128-0.965-0.311-1.39-0.55-0.425-0.238-0.81-0.527-1.154-0.867s-0.636-0.723-0.877-1.15-0.426-0.892-0.557-1.393c-0.13-0.501-0.196-1.033-0.196-1.596 0-0.526 0.073-1.023 0.219-1.491s0.35-0.901 0.611-1.299 0.57-0.756 0.928-1.073 0.75-0.586 1.177-0.806 0.88-0.39 1.359-0.509c0.48-0.119 0.96-0.179 1.46-0.179zm0 2.625c-0.405 0-0.785 0.075-1.14 0.226s-0.667 0.353-0.934 0.607c-0.268 0.254-0.479 0.546-0.634 0.877s-0.233 0.676-0.233 1.036c0 0.45 0.078 0.865 0.233 1.245s0.367 0.708 0.634 0.985c0.268 0.277 0.579 0.493 0.934 0.648s0.735 0.233 1.14 0.233 0.786-0.078 1.144-0.233c0.358-0.155 0.669-0.371 0.934-0.648s0.476-0.605 0.631-0.985 0.233-0.795 0.233-1.245c0-0.36-0.078-0.705-0.233-1.036s-0.365-0.623-0.631-0.877c-0.265-0.254-0.577-0.456-0.934-0.607-0.35-0.151-0.73-0.226-1.14-0.226z"/>
		<path d="m218.74 51.039h3.252v2.294h-5.957v-10.417h2.705v8.123z"/>
		<path d="m232.58 45.65c0.356 0 0.706 0.043 1.048 0.127 0.342 0.085 0.666 0.207 0.97 0.364 0.306 0.157 0.587 0.349 0.843 0.576 0.256 0.226 0.478 0.481 0.662 0.766 0.184 0.284 0.329 0.593 0.434 0.927 0.103 0.334 0.156 0.689 0.156 1.064 0 0.604-0.102 1.157-0.306 1.66-0.205 0.503-0.489 0.934-0.856 1.296-0.365 0.362-0.799 0.643-1.302 0.845s-1.052 0.304-1.651 0.304c-0.398 0-0.776-0.046-1.135-0.137-0.358-0.091-0.688-0.222-0.992-0.392s-0.578-0.377-0.824-0.619c-0.245-0.242-0.454-0.516-0.626-0.821-0.171-0.305-0.304-0.636-0.397-0.995-0.093-0.358-0.139-0.738-0.139-1.14 0-0.376 0.052-0.73 0.156-1.064 0.105-0.334 0.25-0.643 0.436-0.927 0.186-0.285 0.407-0.54 0.662-0.766 0.255-0.227 0.535-0.418 0.84-0.576 0.306-0.157 0.629-0.279 0.971-0.364 0.34-0.085 0.69-0.128 1.05-0.128zm0 1.873c-0.289 0-0.56 0.054-0.814 0.162-0.253 0.107-0.476 0.252-0.667 0.433-0.191 0.182-0.342 0.39-0.453 0.626-0.11 0.236-0.165 0.483-0.165 0.74 0 0.321 0.055 0.617 0.165 0.888 0.111 0.272 0.262 0.506 0.453 0.704 0.191 0.197 0.414 0.351 0.667 0.462 0.254 0.111 0.525 0.166 0.814 0.166s0.561-0.056 0.816-0.166c0.256-0.111 0.478-0.265 0.668-0.462 0.189-0.198 0.34-0.432 0.45-0.704 0.111-0.271 0.166-0.567 0.166-0.888 0-0.257-0.055-0.504-0.166-0.74-0.11-0.236-0.261-0.444-0.45-0.626-0.19-0.181-0.412-0.326-0.668-0.433-0.25-0.108-0.53-0.162-0.81-0.162z"/>
		<path d="m239.9 47.533v1.242h2.125v1.638h-2.125v2.919h-1.932v-7.438h4.273v1.638l-2.34 0.001z"/>
		<path d="m249.95 42.916h2.665l2.118 5.566 2.233-5.566h2.699l1.572 10.417h-2.705l-0.762-5.998h-0.027l-2.503 5.998h-1.073l-2.395-5.998h-0.027l-0.87 5.998h-2.692l1.76-10.417z"/>
		<path d="m266.84 51.525l-0.715 1.808h-2.874l4.007-10.417h2.955l3.927 10.417h-2.888l-0.681-1.808h-3.74zm1.89-5.39h-0.027l-1.12 3.319h2.253l-1.1-3.319z"/>
		<path d="m276.41 42.916h2.705l4.965 6.369h0.027v-6.369h2.705v10.417h-2.705l-4.959-6.382h-0.034v6.382h-2.705v-10.417h-0.01z"/>
		<path d="m292.72 51.525l-0.715 1.808h-2.874l4.007-10.417h2.955l3.926 10.417h-2.888l-0.681-1.808h-3.74zm1.9-5.39h-0.027l-1.12 3.319h2.253l-1.1-3.319z"/>
		<path d="m312.27 47.518c-0.009 0.378-0.025 0.744-0.047 1.1-0.022 0.355-0.071 0.703-0.145 1.042-0.074 0.34-0.18 0.672-0.317 0.999-0.137 0.326-0.323 0.651-0.557 0.975-0.256 0.355-0.542 0.662-0.857 0.921s-0.654 0.471-1.019 0.638c-0.364 0.166-0.749 0.289-1.154 0.368s-0.825 0.118-1.262 0.118c-0.819 0-1.569-0.133-2.25-0.398s-1.267-0.64-1.757-1.123c-0.49-0.484-0.871-1.063-1.144-1.737-0.272-0.675-0.408-1.421-0.408-2.24 0-0.846 0.137-1.614 0.412-2.304 0.274-0.69 0.66-1.28 1.157-1.768s1.092-0.866 1.784-1.133c0.693-0.268 1.46-0.401 2.301-0.401 1.07 0 2.008 0.242 2.813 0.725 0.805 0.484 1.433 1.213 1.882 2.189l-2.57 1.073c-0.094-0.247-0.214-0.472-0.358-0.675-0.144-0.202-0.31-0.377-0.499-0.523s-0.4-0.259-0.634-0.337c-0.234-0.079-0.488-0.118-0.762-0.118-0.445 0-0.837 0.097-1.174 0.29s-0.62 0.446-0.847 0.759-0.398 0.665-0.513 1.056-0.172 0.785-0.172 1.181c0 0.405 0.06 0.802 0.179 1.191s0.295 0.738 0.526 1.046c0.232 0.308 0.52 0.555 0.864 0.742s0.739 0.28 1.184 0.28c0.292 0 0.566-0.038 0.82-0.115 0.254-0.076 0.477-0.19 0.668-0.341s0.347-0.338 0.469-0.563c0.121-0.225 0.196-0.488 0.223-0.789h-2.213v-2.125h5.377v-0.003z"/>
		<path d="m317.67 45.21v1.741h3.056v2.294h-3.056v1.795h3.225v2.294h-5.93v-10.418h5.93v2.294h-3.23z"/>
		<path d="m325.34 42.916h2.665l2.118 5.566 2.233-5.566h2.699l1.572 10.417h-2.705l-0.762-5.998h-0.027l-2.503 5.998h-1.073l-2.395-5.998h-0.027l-0.87 5.998h-2.692l1.77-10.417z"/>
		<path d="m342.22 45.21v1.741h3.056v2.294h-3.056v1.795h3.225v2.294h-5.93v-10.418h5.93v2.294h-3.22z"/>
		<path d="m348.82 42.916h2.705l4.965 6.369h0.027v-6.369h2.705v10.417h-2.705l-4.959-6.382h-0.034v6.382h-2.705v-10.417z"/>
		<path d="m366.67 53.333h-2.705v-8.123h-2.24v-2.294h7.185v2.294h-2.24l0.01 8.123z"/>
	</g>
	<polygon points="55 11 54.975 11 18.472 54 37.402 54 55 13.544" fill="#C3932C"/>
	<polygon points="50.894 11 12 39.844 12 54 12.098 54 54.126 11" fill="#C3932C"/>
	<polygon points="45.794 11 12 25.73 12 35.721 49.763 11" fill="#C3932C"/>
	<polygon points="55 15.817 43.056 54 55 54" fill="#172A53"/>
	<polygon points="12 11 12 23.143 44.124 11" fill="#172A53"/>
</svg>